<?xml version="1.0" encoding="UTF-8" standalone="no"?>
<svg
   xmlns:svg="http://www.w3.org/2000/svg"
   xmlns="http://www.w3.org/2000/svg"
   width="800.0"
   height="240.0"

>
    <g transform="scale(1.709233473065455, -1.709233473065455)   translate(117.0115160694264,-114.97740122937496)" stroke-width="0.5850575803471321"  fill="none">
       <!-- hidden lines -->
       <g  stroke="rgb(160,160,160)" fill="none" stroke-dasharray="0.5850575803471321,0.5850575803471321" >
			<path d="M0.0,0.0 L185.46816702592244,13.197759257031958 " />
			<path d="M185.46816702592244,13.197759257031958 L188.96988152804036,11.163644416980505 " />
			<path d="M90.38387620560982,4.966886264627527 L98.87860141290399,5.571363787850364 " />
			<path d="M98.87860141290399,5.5713637878503635 L97.55719971399157,6.338954293530158 " />
			<path d="M89.0624745066974,5.73447677030732 L97.55719971399157,6.338954293530159 " />
			<path d="M90.38387620560984,4.966886264627526 L89.06247450669741,5.73447677030732 " />
			<path d="M185.46816702592244,13.197759257031958 L185.46816702592244,103.27624962243232 " />
			<path d="M90.38387620560982,4.966886264627527 L90.38387620560982,6.925114316049274 " />
			<path d="M98.87860141290398,5.571363787850364 L98.87860141290398,7.529591839272111 " />
			<path d="M97.55719971399155,6.338954293530158 L97.55719971399155,7.4355620023263365 " />
			<path d="M89.0624745066974,5.73447677030732 L89.0624745066974,7.692704821729067 " />
			<path d="M89.0624745066974,7.692704821729067 L89.62407022873518,7.732667502431021 " />
			<path d="M88.96336937927897,7.750274109655052 L89.0624745066974,7.692704821729068 " />
			<path d="M88.96336937927897,7.750274109655052 L88.96336937927897,10.198059173932236 " />
			<path d="M5.389431214849964,1.3724125723682508 L3.37429362400851,1.2290170710259438 " />
			<path d="M3.3742936240085126,1.2290170710259425 L5.38943121484996,0.05844154986425674 " />
			<path d="M185.06702722446687,100.32015391362683 L185.06702722446687,99.00618289112282 " />
			<path d="M185.06702722446687,100.32015391362681 L187.08216481530832,99.14957839246513 " />
			<path d="M3.374293624008512,87.3910513335828 L185.06702722446687,100.32015391362683 " />
			<path d="M3.374293624008512,87.39105133358278 L5.38943121484996,86.2204758124211 " />
			<path d="M3.3742936240085126,1.2290170710259425 L3.3742936240085126,87.3910513335828 " />
			<path d="M184.24115116264662,14.637863717119842 L184.40632637501068,14.541914903909868 " />
			<path d="M2.548417562188247,1.7087611370758136 L89.62407022873518,7.904991570956135 " />
			<path d="M97.45809458657313,8.462454175706085 L184.24115116264662,14.637863717119844 " />
			<path d="M2.548417562188247,1.7087611370758136 L2.7135927745523003,1.6128123238658394 " />
			<path d="M2.7135927745523003,1.6128123238658394 L88.96336937927897,7.750274109655051 " />
			<path d="M97.45809458657313,8.354751632877889 L184.40632637501068,14.54191490390987 " />
			<path d="M184.40632637501065,100.70394916646671 L184.40632637501065,14.541914903909856 " />
			<path d="M2.7135927745523,87.77484658642268 L184.40632637501068,100.70394916646671 " />
			<path d="M2.7135927745523003,1.6128123238658394 L2.7135927745523003,87.7748465864227 " />
			<path d="M5.073238665467344,4.228507811260477 L5.733939514923557,4.275522729733365 " />
			<path d="M5.073238665467344,4.228507811260478 L5.073238665467344,85.49497194526298 " />
			<path d="M5.073238665467343,85.49497194526296 L182.04668048409562,98.08825367907207 " />
			<path d="M182.0466804840956,97.65744350775928 L182.0466804840956,98.08825367907208 " />
			<path d="M5.733939514923557,3.844712558420581 L5.073238665467344,4.228507811260478 " />
			<path d="M184.24115116264662,14.637863717119842 L184.24115116264662,100.7998979796767 " />
			<path d="M184.24115116264662,100.79989797967669 L184.40632637501068,100.70394916646671 " />
			<path d="M2.548417562188247,1.7087611370758136 L2.548417562188247,87.87079539963267 " />
			<path d="M2.5484175621882468,87.87079539963266 L184.24115116264662,100.79989797967669 " />
			<path d="M2.5484175621882468,87.87079539963266 L2.7135927745523,87.77484658642268 " />
			<path d="M182.7073813335518,97.70445842623218 L182.0466804840956,98.08825367907208 " />
			<path d="M5.733939514923556,85.11117669242306 L5.073238665467343,85.49497194526296 " />

       </g>

       <!-- solid lines -->
       <g  stroke="rgb(0,0,0)" fill="none">
			<path d="M0.0,0.0 L3.5017145021179252,-2.034114840051454 " />
			<path d="M3.5017145021179252,-2.0341148400514535 L3.5017145021179252,88.0443755253489 " />
			<path d="M-1.842730430318299e-16,90.07849036540036 L3.501714502117925,88.0443755253489 " />
			<path d="M0.0,0.0 L-1.8427304303182993e-16,90.07849036540036 " />
			<path d="M3.5017145021179252,-2.0341148400514535 L188.96988152804036,11.163644416980505 " />
			<path d="M3.5017145021179252,88.0443755253489 L188.96988152804036,101.24213478238086 " />
			<path d="M188.96988152804036,11.163644416980505 L188.96988152804036,101.24213478238086 " />
			<path d="M187.08216481530835,12.987544129908288 L5.38943121484996,0.05844154986425715 " />
			<path d="M187.08216481530832,12.987544129908287 L187.08216481530832,99.14957839246514 " />
			<path d="M187.08216481530835,99.14957839246513 L5.389431214849959,86.2204758124211 " />
			<path d="M5.38943121484996,0.05844154986425709 L5.38943121484996,86.22047581242111 " />
			<path d="M-1.842730430318299e-16,90.07849036540036 L185.46816702592244,103.27624962243232 " />
			<path d="M185.46816702592244,103.27624962243232 L188.96988152804036,101.24213478238086 " />
			<path d="M90.38387620560982,6.925114316049274 L98.87860141290399,7.529591839272111 " />
			<path d="M97.55719971399155,7.4355620023263365 L97.55719971399155,8.297182344951905 " />
			<path d="M97.45809458657313,8.354751632877889 L97.55719971399155,8.297182344951905 " />
			<path d="M97.45809458657313,8.354751632877889 L97.45809458657313,10.802536697155073 " />
			<path d="M97.45809458657313,10.802536697155073 L98.11879543602933,10.418741444315176 " />
			<path d="M98.11879543602933,7.970956380037992 L98.11879543602933,10.418741444315176 " />
			<path d="M98.87860141290398,7.52959183927211 L98.11879543602933,7.970956380037992 " />
			<path d="M89.62407022873518,7.732667502431021 L97.55719971399157,8.297182344951905 " />
			<path d="M88.96336937927897,10.198059173932235 L89.62407022873518,9.814263921092337 " />
			<path d="M89.62407022873518,7.366478856815156 L89.62407022873518,9.814263921092339 " />
			<path d="M90.38387620560982,6.9251143160492745 L89.62407022873518,7.3664788568151565 " />
			<path d="M185.06702722446687,14.15811965106997 L187.08216481530832,12.987544129908285 " />
			<path d="M185.06702722446687,14.158119651069972 L98.11879543602933,7.970956380037992 " />
			<path d="M89.62407022873518,7.366478856815156 L5.389431214849964,1.3724125723682508 " />
			<path d="M185.06702722446687,99.00618289112282 L185.06702722446687,14.158119651069967 " />
			<path d="M89.62407022873518,7.904991570956135 L97.45809458657313,8.462454175706085 " />
			<path d="M97.45809458657313,10.802536697155073 L182.04668048409562,16.8217895450696 " />
			<path d="M5.733939514923557,4.275522729733365 L88.96336937927897,10.198059173932235 " />
			<path d="M182.0466804840956,16.821789545069596 L182.0466804840956,97.65744350775928 " />
			<path d="M182.7073813335518,16.4379942922297 L182.0466804840956,16.821789545069596 " />
			<path d="M98.11879543602933,10.418741444315177 L182.7073813335518,16.437994292229703 " />
			<path d="M5.733939514923557,3.8447125584205804 L89.62407022873518,9.814263921092337 " />
			<path d="M5.733939514923557,3.8447125584205812 L5.733939514923557,85.11117669242307 " />
			<path d="M5.733939514923556,85.11117669242307 L182.70738133355184,97.70445842623218 " />
			<path d="M182.7073813335518,16.4379942922297 L182.7073813335518,97.7044584262322 " />

       </g>
    </g>
    <g transform="translate(20,210.0)" stroke="rgb(0,0,255)">
        <line x1="30" y1="-30" x2="75" y2="-33" stroke-width="3" stroke="#000000" />
         <text x="80" y="-30" style="stroke:#000000">X </text>

        <line x1="30" y1="-30" x2="30" y2="-75" stroke-width="3" stroke="#000000" />
         <text x="25" y="-85" style="stroke:#000000">Y </text>

        <line x1="30" y1="-30" x2="58" y2="-15" stroke-width="3" stroke="#000000" />
         <text x="65" y="-5" style="stroke:#000000">Z </text>
        <!--
            <line x1="0" y1="0" x2="1.709233473065455" y2="0" stroke-width="3" />
            <text x="0" y="20" style="stroke:#000000">1  mm </text>
        -->
    </g>
</svg>
