<?xml version="1.0" encoding="UTF-8" standalone="no"?>
<svg
   xmlns:svg="http://www.w3.org/2000/svg"
   xmlns="http://www.w3.org/2000/svg"
   width="800.0"
   height="240.0"

>
    <g transform="scale(1.8673189398277015, -1.8673189398277015)   translate(107.10543107245199,-105.07131623240053)" stroke-width="0.5355271553622599"  fill="none">
       <!-- hidden lines -->
       <g  stroke="rgb(160,160,160)" fill="none" stroke-dasharray="0.5355271553622599,0.5355271553622599" >
			<path d="M0.0,0.0 L102.83336792607761,7.317536239458686 " />
			<path d="M102.8333679260776,7.317536239458686 L106.33508242819552,5.283421399407232 " />
			<path d="M12.128579879303325,-0.6016950076397481 L20.62330508659748,0.002782515583089514 " />
			<path d="M20.623305086597483,0.0027825155830893387 L19.30190338768506,0.7703730212628833 " />
			<path d="M10.8071781803909,0.16589549804004566 L19.301903387685055,0.7703730212628833 " />
			<path d="M12.128579879303324,-0.6016950076397484 L10.807178180390899,0.1658954980400457 " />
			<path d="M102.8333679260776,7.317536239458686 L102.8333679260776,94.36077312515533 " />
			<path d="M12.128579879303324,-0.601695007639748 L12.128579879303324,1.3565330437819985 " />
			<path d="M20.62330508659748,0.0027825155830895065 L20.62330508659748,1.9610105670048361 " />
			<path d="M19.301903387685055,0.7703730212628833 L19.301903387685055,1.8669807300590613 " />
			<path d="M10.807178180390899,0.16589549804004566 L10.807178180390899,2.124123549461792 " />
			<path d="M10.8071781803909,2.1241235494617925 L11.36877390242868,2.1640862301637465 " />
			<path d="M10.708073052972468,2.181692837387777 L10.807178180390899,2.1241235494617925 " />
			<path d="M10.708073052972468,2.181692837387777 L10.708073052972468,4.62947790166496 " />
			<path d="M5.38943121484996,1.3724125723682492 L3.3742936240085117,1.2290170710259427 " />
			<path d="M3.3742936240085126,1.2290170710259425 L5.38943121484996,0.05844154986425674 " />
			<path d="M102.43222812462204,91.40467741634986 L102.43222812462204,90.09070639384585 " />
			<path d="M102.43222812462206,91.40467741634984 L104.4473657154635,90.23410189518816 " />
			<path d="M3.374293624008512,84.3557978538791 L102.43222812462206,91.40467741634986 " />
			<path d="M3.374293624008512,84.35579785387908 L5.38943121484996,83.1852223327174 " />
			<path d="M3.3742936240085126,1.2290170710259425 L3.3742936240085126,84.3557978538791 " />
			<path d="M19.202798260266626,2.7861703606106145 L101.77152727516585,8.661691886336598 " />
			<path d="M101.77152727516584,8.661691886336598 L101.60635206280178,8.757640699546572 " />
			<path d="M2.548417562188247,1.7087611370758136 L11.36877390242868,2.33641029868886 " />
			<path d="M19.202798260266626,2.8938729034388104 L101.60635206280179,8.757640699546572 " />
			<path d="M2.548417562188247,1.7087611370758136 L2.7135927745523003,1.6128123238658394 " />
			<path d="M2.7135927745523003,1.6128123238658394 L10.708073052972468,2.181692837387777 " />
			<path d="M101.77152727516584,91.78847266918974 L101.77152727516584,8.661691886336584 " />
			<path d="M2.7135927745523,84.73959310671898 L101.77152727516584,91.78847266918974 " />
			<path d="M2.7135927745523003,1.6128123238658394 L2.7135927745523003,84.739593106719 " />
			<path d="M5.073238665467344,4.228507811260477 L5.733939514923557,4.275522729733365 " />
			<path d="M5.073238665467344,4.228507811260478 L5.073238665467344,82.45971846555928 " />
			<path d="M5.073238665467343,82.45971846555926 L99.41188138425079,89.1727771817951 " />
			<path d="M99.41188138425079,88.74196701048233 L99.41188138425079,89.17277718179511 " />
			<path d="M5.733939514923557,3.844712558420581 L5.073238665467344,4.228507811260478 " />
			<path d="M101.60635206280179,8.757640699546572 L101.60635206280179,91.88442148239973 " />
			<path d="M101.60635206280179,91.88442148239972 L101.77152727516584,91.78847266918974 " />
			<path d="M2.548417562188247,1.7087611370758136 L2.548417562188247,84.83554191992897 " />
			<path d="M2.5484175621882468,84.83554191992896 L101.60635206280179,91.88442148239972 " />
			<path d="M2.5484175621882468,84.83554191992896 L2.7135927745523,84.73959310671898 " />
			<path d="M100.072582233707,88.78898192895521 L99.41188138425079,89.17277718179511 " />
			<path d="M5.733939514923556,82.07592321271936 L5.073238665467343,82.45971846555926 " />

       </g>

       <!-- solid lines -->
       <g  stroke="rgb(0,0,0)" fill="none">
			<path d="M0.0,0.0 L3.5017145021179252,-2.034114840051454 " />
			<path d="M3.5017145021179252,-2.0341148400514535 L3.5017145021179252,85.00912204564519 " />
			<path d="M-1.7806384266880088e-16,87.04323688569664 L3.501714502117925,85.00912204564519 " />
			<path d="M0.0,0.0 L-1.7806384266880085e-16,87.04323688569664 " />
			<path d="M3.5017145021179252,-2.0341148400514535 L106.33508242819553,5.283421399407233 " />
			<path d="M3.5017145021179252,85.00912204564519 L106.33508242819553,92.32665828510387 " />
			<path d="M106.33508242819552,5.283421399407232 L106.33508242819552,92.32665828510387 " />
			<path d="M104.44736571546349,7.107321112335015 L5.38943121484996,0.05844154986425715 " />
			<path d="M104.44736571546349,7.107321112335015 L104.44736571546349,90.23410189518818 " />
			<path d="M104.44736571546349,90.23410189518816 L5.389431214849959,83.1852223327174 " />
			<path d="M5.38943121484996,0.05844154986425709 L5.38943121484996,83.18522233271742 " />
			<path d="M-1.7806384266880088e-16,87.04323688569664 L102.83336792607761,94.36077312515533 " />
			<path d="M102.8333679260776,94.36077312515533 L106.33508242819552,92.32665828510387 " />
			<path d="M12.128579879303325,1.3565330437819987 L20.623305086597483,1.9610105670048363 " />
			<path d="M19.301903387685055,1.8669807300590613 L19.301903387685055,2.7286010726846297 " />
			<path d="M19.202798260266626,2.7861703606106145 L19.30190338768506,2.72860107268463 " />
			<path d="M19.202798260266626,2.7861703606106145 L19.202798260266626,5.233955424887798 " />
			<path d="M19.202798260266626,5.233955424887798 L19.863499109722838,4.850160172047901 " />
			<path d="M19.863499109722838,2.4023751077707174 L19.863499109722838,4.8501601720479 " />
			<path d="M20.62330508659748,1.9610105670048361 L19.863499109722834,2.4023751077707174 " />
			<path d="M11.36877390242868,2.1640862301637465 L19.30190338768506,2.72860107268463 " />
			<path d="M10.708073052972468,4.62947790166496 L11.36877390242868,4.245682648825063 " />
			<path d="M11.36877390242868,1.79789758454788 L11.36877390242868,4.245682648825063 " />
			<path d="M11.36877390242868,1.7978975845478802 L12.128579879303324,1.3565330437819987 " />
			<path d="M104.44736571546349,7.107321112335016 L102.43222812462204,8.2778966334967 " />
			<path d="M102.43222812462204,8.277896633496702 L19.863499109722824,2.4023751077707187 " />
			<path d="M11.36877390242868,1.79789758454788 L5.38943121484996,1.3724125723682492 " />
			<path d="M102.43222812462204,90.09070639384585 L102.43222812462204,8.277896633496695 " />
			<path d="M11.36877390242868,2.33641029868886 L19.202798260266626,2.8938729034388104 " />
			<path d="M19.202798260266626,5.233955424887798 L99.41188138425079,10.941566527496326 " />
			<path d="M5.733939514923557,4.275522729733365 L10.708073052972468,4.629477901664959 " />
			<path d="M99.41188138425079,10.941566527496324 L99.41188138425079,88.74196701048233 " />
			<path d="M100.072582233707,10.557771274656428 L99.41188138425079,10.941566527496326 " />
			<path d="M19.863499109722838,4.850160172047901 L100.07258223370701,10.55777127465643 " />
			<path d="M5.733939514923557,3.8447125584205804 L11.36877390242868,4.2456826488250625 " />
			<path d="M5.733939514923557,3.8447125584205812 L5.733939514923557,82.07592321271937 " />
			<path d="M5.733939514923556,82.07592321271937 L100.072582233707,88.78898192895521 " />
			<path d="M100.072582233707,10.557771274656428 L100.072582233707,88.78898192895522 " />

       </g>
    </g>
    <g transform="translate(20,210.0)" stroke="rgb(0,0,255)">
        <line x1="30" y1="-30" x2="75" y2="-33" stroke-width="3" stroke="#000000" />
         <text x="80" y="-30" style="stroke:#000000">X </text>

        <line x1="30" y1="-30" x2="30" y2="-75" stroke-width="3" stroke="#000000" />
         <text x="25" y="-85" style="stroke:#000000">Y </text>

        <line x1="30" y1="-30" x2="58" y2="-15" stroke-width="3" stroke="#000000" />
         <text x="65" y="-5" style="stroke:#000000">Z </text>
        <!--
            <line x1="0" y1="0" x2="1.8673189398277015" y2="0" stroke-width="3" />
            <text x="0" y="20" style="stroke:#000000">1  mm </text>
        -->
    </g>
</svg>
