<?xml version="1.0" encoding="UTF-8" standalone="no"?>
<svg
   xmlns:svg="http://www.w3.org/2000/svg"
   xmlns="http://www.w3.org/2000/svg"
   width="800.0"
   height="240.0"

>
    <g transform="scale(1.2514707777726481, -1.2514707777726481)   translate(159.81196169514837,-156.35321956828432)" stroke-width="0.7990598084757419"  fill="none">
       <!-- hidden lines -->
       <g  stroke="rgb(160,160,160)" fill="none" stroke-dasharray="0.7990598084757419,0.7990598084757419" >
			<path d="M0.0,0.0 L342.14865418268135,24.347011352030965 " />
			<path d="M342.1486541826813,24.347011352030965 L345.61629023997796,20.888269225166884 " />
			<path d="M159.7356037546645,8.989540859910337 L168.23032896195866,9.594018383133175 " />
			<path d="M168.23032896195866,9.594018383133175 L166.92178705354482,10.899204091383773 " />
			<path d="M158.42706184625067,10.294726568160932 L166.92178705354482,10.89920409138377 " />
			<path d="M159.7356037546645,8.989540859910338 L158.42706184625067,10.294726568160936 " />
			<path d="M342.1486541826813,24.347011352030965 L342.1486541826813,140.37202339876947 " />
			<path d="M159.7356037546645,8.989540859910337 L159.82755554069027,10.875297595075837 " />
			<path d="M168.23032896195866,9.594018383133173 L168.32228074798442,11.479775118298674 " />
			<path d="M166.92178705354482,10.899204091383773 L166.94531860818384,11.381791646964775 " />
			<path d="M158.42706184625067,10.294726568160934 L158.51901363227643,12.180483303326435 " />
			<path d="M158.51901363227645,12.180483303326435 L159.10422254169168,12.22212627864334 " />
			<path d="M158.4208729891454,12.278372231445228 L158.51901363227645,12.180483303326433 " />
			<path d="M158.4208729891454,12.278372231445228 L158.53581272167762,14.635568150402104 " />
			<path d="M5.551645408919243,0.7011759456617435 L3.4517781457233556,0.5517511518775442 " />
			<path d="M3.451778145723372,0.5517511518775434 L5.447304556054473,-1.4386570532046168 " />
			<path d="M347.089238652916,132.5896789151455 L346.9848978000512,130.44984591627914 " />
			<path d="M347.089238652916,132.5896789151455 L349.08476506324706,130.59927071006334 " />
			<path d="M8.716017895698728,108.51132424010245 L347.089238652916,132.5896789151455 " />
			<path d="M8.71601789569873,108.51132424010247 L10.71154430602983,106.5209160350203 " />
			<path d="M3.4517781457233716,0.5517511518775435 L8.71601789569873,108.51132424010248 " />
			<path d="M341.00716021018195,25.445846894577205 L341.17072794873366,25.28269868104588 " />
			<path d="M2.6339394529647238,1.3674922195341666 L159.11790658796906,12.502760114560242 " />
			<path d="M166.92415072536295,13.05824590211613 L341.00716021018195,25.4458468945772 " />
			<path d="M2.6339394529647238,1.3674922195341666 L2.7975071915164533,1.2043440060028419 " />
			<path d="M2.7975071915164533,1.2043440060028419 L158.4208729891454,12.278372231445228 " />
			<path d="M166.91559819643956,12.882849754668067 L341.1707279487337,25.28269868104588 " />
			<path d="M346.43496769870904,133.2422717692708 L341.1707279487337,25.282698681045854 " />
			<path d="M8.061746941491812,109.16391709422776 L346.43496769870904,133.2422717692708 " />
			<path d="M2.7975071915164533,1.2043440060028419 L8.061746941491812,109.16391709422777 " />
			<path d="M5.27209281496371,3.7294503480771724 L5.960573884863994,3.7784420837441224 " />
			<path d="M5.2720928149637105,3.729450348077173 L10.306453099874643,106.97463159838836 " />
			<path d="M10.306453099874641,106.97463159838836 L343.96038207526186,130.71716542719648 " />
			<path d="M343.9261719595685,130.01558083740423 L343.9603820752618,130.71716542719648 " />
			<path d="M5.926363769170629,3.076857493951875 L5.2720928149637105,3.7294503480771732 " />
			<path d="M341.00716021018195,25.445846894577205 L346.2713999601573,133.40541998280213 " />
			<path d="M346.27139996015734,133.40541998280213 L346.43496769870904,133.24227176927081 " />
			<path d="M2.6339394529647238,1.3674922195341666 L7.898179202940082,109.3270653077591 " />
			<path d="M7.8981792029400815,109.32706530775909 L346.27139996015734,133.40541998280213 " />
			<path d="M7.8981792029400815,109.32706530775909 L8.061746941491812,109.16391709422776 " />
			<path d="M10.96072405408156,106.32203874426305 L10.306453099874641,106.97463159838836 " />
			<path d="M344.61465302946874,130.0645725730712 L343.9603820752618,130.71716542719648 " />

       </g>

       <!-- solid lines -->
       <g  stroke="rgb(0,0,0)" fill="none">
			<path d="M0.0,0.0 L3.4676360572966676,-3.458742126864082 " />
			<path d="M0.0,0.0 L-2.373516912964331e-16,116.0250120467385 " />
			<path d="M-2.373516912964331e-16,116.0250120467385 L5.501685345615942,112.82913191429412 " />
			<path d="M5.501685345615941,112.82913191429412 L5.4481433220268976,111.73108655855593 " />
			<path d="M5.4481433220268976,111.73108655855592 L8.915779379323565,108.27234443169183 " />
			<path d="M3.4676360572966676,-3.4587421268640814 L8.915779379323567,108.27234443169186 " />
			<path d="M3.4676360572966676,-3.4587421268640814 L345.616290239978,20.888269225166884 " />
			<path d="M8.915779379323565,108.27234443169185 L351.0644335620049,132.61935578372282 " />
			<path d="M345.61629023997796,20.888269225166884 L351.06443356200487,132.61935578372282 " />
			<path d="M343.82052531327173,22.639697621838422 L5.447304556054473,-1.4386570532046166 " />
			<path d="M343.82052531327173,22.63969762183842 L349.08476506324706,130.59927071006334 " />
			<path d="M349.0847650632471,130.59927071006334 L10.71154430602983,106.52091603502029 " />
			<path d="M5.447304556054473,-1.4386570532046161 L10.71154430602983,106.52091603502032 " />
			<path d="M5.4481433220268976,111.73108655855592 L347.59679750470826,136.07809791058688 " />
			<path d="M347.5967975047082,136.0780979105869 L351.06443356200487,132.61935578372282 " />
			<path d="M-2.373516912964331e-16,116.0250120467385 L342.14865418268135,140.37202339876947 " />
			<path d="M342.1486541826813,140.37202339876947 L347.65033952829725,137.1761432663251 " />
			<path d="M347.65033952829725,137.1761432663251 L347.5967975047082,136.0780979105869 " />
			<path d="M159.82755554069027,10.875297595075839 L168.32228074798445,11.479775118298676 " />
			<path d="M166.94531860818384,11.381791646964775 L167.01373883957058,12.784960826549273 " />
			<path d="M166.91559819643956,12.882849754668067 L167.0137388395706,12.784960826549272 " />
			<path d="M166.91559819643956,12.882849754668067 L167.03053792897177,15.240045673624943 " />
			<path d="M167.03053792897177,15.240045673624945 L167.68480888317868,14.587452819499646 " />
			<path d="M167.56986915064647,12.23025690054277 L167.68480888317868,14.587452819499646 " />
			<path d="M168.32228074798442,11.479775118298676 L167.56986915064647,12.230256900542768 " />
			<path d="M159.10422254169168,12.22212627864334 L167.0137388395706,12.784960826549272 " />
			<path d="M158.53581272167762,14.635568150402106 L159.19008367588452,13.982975296276807 " />
			<path d="M159.07514394335232,11.625779377319931 L159.19008367588452,13.982975296276807 " />
			<path d="M159.82755554069027,10.875297595075837 L159.07514394335232,11.62577937731993 " />
			<path d="M341.8249989029406,24.63010582692058 L343.8205253132717,22.639697621838422 " />
			<path d="M341.8249989029406,24.63010582692058 L167.56986915064644,12.230256900542768 " />
			<path d="M159.07514394335232,11.625779377319931 L5.551645408919243,0.7011759456617435 " />
			<path d="M346.9848978000512,130.44984591627914 L341.82499890294065,24.630105826920566 " />
			<path d="M5.501685345615941,112.82913191429412 L347.6503395282973,137.17614326632508 " />
			<path d="M159.11790658796906,12.502760114560242 L166.92415072536295,13.05824590211613 " />
			<path d="M167.03053792897177,15.240045673624945 L338.9260217903509,27.471984176885304 " />
			<path d="M5.960573884863994,3.7784420837441224 L158.53581272167762,14.635568150402104 " />
			<path d="M338.9260217903509,27.4719841768853 L343.9261719595685,130.01558083740423 " />
			<path d="M339.5802927445578,26.81939132276 L338.9260217903509,27.4719841768853 " />
			<path d="M167.68480888317868,14.587452819499646 L339.58029274455777,26.819391322760005 " />
			<path d="M5.926363769170629,3.076857493951875 L159.19008367588455,13.982975296276807 " />
			<path d="M5.926363769170629,3.0768574939518745 L10.960724054081561,106.32203874426305 " />
			<path d="M10.96072405408156,106.32203874426305 L344.61465302946874,130.0645725730712 " />
			<path d="M339.58029274455777,26.81939132276 L344.6146530294687,130.0645725730712 " />

       </g>
    </g>
    <g transform="translate(20,210.0)" stroke="rgb(0,0,255)">
        <line x1="30" y1="-30" x2="75" y2="-33" stroke-width="3" stroke="#000000" />
         <text x="80" y="-30" style="stroke:#000000">X </text>

        <line x1="30" y1="-30" x2="30" y2="-75" stroke-width="3" stroke="#000000" />
         <text x="25" y="-85" style="stroke:#000000">Y </text>

        <line x1="30" y1="-30" x2="58" y2="-15" stroke-width="3" stroke="#000000" />
         <text x="65" y="-5" style="stroke:#000000">Z </text>
        <!--
            <line x1="0" y1="0" x2="1.2514707777726481" y2="0" stroke-width="3" />
            <text x="0" y="20" style="stroke:#000000">1  mm </text>
        -->
    </g>
</svg>
