<?xml version="1.0" encoding="UTF-8" standalone="no"?>
<svg
   xmlns:svg="http://www.w3.org/2000/svg"
   xmlns="http://www.w3.org/2000/svg"
   width="800.0"
   height="240.0"

>
    <g transform="scale(1.8673189398277015, -1.8673189398277015)   translate(107.10543107245199,-105.07131623240053)" stroke-width="0.5355271553622599"  fill="none">
       <!-- hidden lines -->
       <g  stroke="rgb(160,160,160)" fill="none" stroke-dasharray="0.5355271553622599,0.5355271553622599" >
			<path d="M0.0,0.0 L102.83336792607761,7.317536239458686 " />
			<path d="M102.8333679260776,7.317536239458686 L106.33508242819552,5.283421399407232 " />
			<path d="M11.477317613410772,-0.6480382844201659 L19.97204282070493,-0.04356076119732794 " />
			<path d="M19.972042820704935,-0.043560761197328046 L18.65064112179251,0.7240297444824659 " />
			<path d="M10.155915914498348,0.11955222125962796 L18.650641121792507,0.7240297444824658 " />
			<path d="M11.47731761341077,-0.6480382844201661 L10.155915914498346,0.11955222125962796 " />
			<path d="M102.8333679260776,7.317536239458686 L102.8333679260776,94.36077312515533 " />
			<path d="M11.47731761341077,-0.6480382844201658 L11.47731761341077,1.3101897670015807 " />
			<path d="M19.97204282070493,-0.043560761197327935 L19.97204282070493,1.9146672902244186 " />
			<path d="M18.650641121792507,0.7240297444824659 L18.650641121792507,1.820637453278644 " />
			<path d="M10.155915914498346,0.119552221259628 L10.155915914498346,2.0777802726813746 " />
			<path d="M10.155915914498348,2.077780272681375 L10.717511636536127,2.117742953383329 " />
			<path d="M10.056810787079915,2.1353495606073594 L10.155915914498346,2.077780272681375 " />
			<path d="M10.056810787079915,2.1353495606073594 L10.056810787079915,4.583134624884543 " />
			<path d="M5.38943121484996,1.3724125723682494 L3.3742936240085117,1.2290170710259427 " />
			<path d="M3.3742936240085126,1.2290170710259425 L5.38943121484996,0.05844154986425674 " />
			<path d="M102.43222812462204,91.40467741634986 L102.43222812462204,90.09070639384585 " />
			<path d="M102.43222812462206,91.40467741634984 L104.4473657154635,90.23410189518816 " />
			<path d="M3.374293624008512,84.3557978538791 L102.43222812462206,91.40467741634986 " />
			<path d="M3.374293624008512,84.35579785387908 L5.38943121484996,83.1852223327174 " />
			<path d="M3.3742936240085126,1.2290170710259425 L3.3742936240085126,84.3557978538791 " />
			<path d="M18.551535994374078,2.739827083830197 L101.77152727516584,8.661691886336596 " />
			<path d="M101.77152727516584,8.661691886336598 L101.60635206280178,8.757640699546572 " />
			<path d="M2.548417562188247,1.7087611370758136 L10.717511636536127,2.2900670219084422 " />
			<path d="M18.551535994374078,2.847529626658393 L101.60635206280179,8.757640699546572 " />
			<path d="M2.548417562188247,1.7087611370758136 L2.7135927745523003,1.6128123238658394 " />
			<path d="M2.7135927745523003,1.6128123238658394 L10.056810787079916,2.135349560607359 " />
			<path d="M101.77152727516584,91.78847266918974 L101.77152727516584,8.661691886336584 " />
			<path d="M2.7135927745523,84.73959310671898 L101.77152727516584,91.78847266918974 " />
			<path d="M2.7135927745523003,1.6128123238658394 L2.7135927745523003,84.739593106719 " />
			<path d="M5.073238665467344,4.228507811260477 L5.733939514923557,4.275522729733365 " />
			<path d="M5.073238665467344,4.228507811260478 L5.073238665467344,82.45971846555928 " />
			<path d="M5.073238665467343,82.45971846555926 L99.41188138425079,89.1727771817951 " />
			<path d="M99.41188138425079,88.74196701048233 L99.41188138425079,89.17277718179511 " />
			<path d="M5.733939514923557,3.844712558420581 L5.073238665467344,4.228507811260478 " />
			<path d="M101.60635206280179,8.757640699546572 L101.60635206280179,91.88442148239973 " />
			<path d="M101.60635206280179,91.88442148239972 L101.77152727516584,91.78847266918974 " />
			<path d="M2.548417562188247,1.7087611370758136 L2.548417562188247,84.83554191992897 " />
			<path d="M2.5484175621882468,84.83554191992896 L101.60635206280179,91.88442148239972 " />
			<path d="M2.5484175621882468,84.83554191992896 L2.7135927745523,84.73959310671898 " />
			<path d="M100.072582233707,88.78898192895521 L99.41188138425079,89.17277718179511 " />
			<path d="M5.733939514923556,82.07592321271936 L5.073238665467343,82.45971846555926 " />

       </g>

       <!-- solid lines -->
       <g  stroke="rgb(0,0,0)" fill="none">
			<path d="M0.0,0.0 L3.5017145021179252,-2.034114840051454 " />
			<path d="M3.5017145021179252,-2.0341148400514535 L3.5017145021179252,85.00912204564519 " />
			<path d="M-1.7806384266880088e-16,87.04323688569664 L3.501714502117925,85.00912204564519 " />
			<path d="M0.0,0.0 L-1.7806384266880085e-16,87.04323688569664 " />
			<path d="M3.5017145021179252,-2.0341148400514535 L106.33508242819553,5.283421399407233 " />
			<path d="M3.5017145021179252,85.00912204564519 L106.33508242819553,92.32665828510387 " />
			<path d="M106.33508242819552,5.283421399407232 L106.33508242819552,92.32665828510387 " />
			<path d="M104.44736571546349,7.107321112335015 L5.38943121484996,0.05844154986425715 " />
			<path d="M104.44736571546349,7.107321112335015 L104.44736571546349,90.23410189518818 " />
			<path d="M104.44736571546349,90.23410189518816 L5.389431214849959,83.1852223327174 " />
			<path d="M5.38943121484996,0.05844154986425709 L5.38943121484996,83.18522233271742 " />
			<path d="M-1.7806384266880088e-16,87.04323688569664 L102.83336792607761,94.36077312515533 " />
			<path d="M102.8333679260776,94.36077312515533 L106.33508242819552,92.32665828510387 " />
			<path d="M11.477317613410772,1.310189767001581 L19.97204282070493,1.9146672902244188 " />
			<path d="M18.650641121792507,1.820637453278644 L18.650641121792507,2.6822577959042126 " />
			<path d="M18.551535994374078,2.739827083830197 L18.65064112179251,2.6822577959042126 " />
			<path d="M18.551535994374078,2.739827083830197 L18.551535994374078,5.18761214810738 " />
			<path d="M18.551535994374078,5.18761214810738 L19.21223684383029,4.803816895267484 " />
			<path d="M19.21223684383029,2.3560318309903 L19.21223684383029,4.803816895267483 " />
			<path d="M19.97204282070493,1.9146672902244186 L19.212236843830286,2.3560318309903 " />
			<path d="M10.717511636536127,2.117742953383329 L18.650641121792507,2.6822577959042126 " />
			<path d="M10.056810787079915,4.583134624884543 L10.717511636536127,4.199339372044646 " />
			<path d="M10.717511636536127,1.7515543077674625 L10.717511636536127,4.199339372044646 " />
			<path d="M10.717511636536127,1.7515543077674627 L11.47731761341077,1.3101897670015812 " />
			<path d="M104.44736571546349,7.107321112335016 L102.43222812462204,8.2778966334967 " />
			<path d="M102.43222812462204,8.277896633496702 L19.212236843830283,2.356031830990302 " />
			<path d="M10.717511636536127,1.7515543077674625 L5.38943121484996,1.3724125723682494 " />
			<path d="M102.43222812462204,90.09070639384585 L102.43222812462204,8.277896633496695 " />
			<path d="M10.717511636536127,2.2900670219084422 L18.551535994374078,2.847529626658393 " />
			<path d="M18.551535994374078,5.18761214810738 L99.4118813842508,10.941566527496326 " />
			<path d="M5.733939514923557,4.275522729733365 L10.056810787079916,4.583134624884542 " />
			<path d="M99.41188138425079,10.941566527496324 L99.41188138425079,88.74196701048233 " />
			<path d="M100.072582233707,10.557771274656428 L99.41188138425079,10.941566527496326 " />
			<path d="M19.21223684383029,4.803816895267484 L100.07258223370701,10.55777127465643 " />
			<path d="M5.733939514923557,3.8447125584205804 L10.717511636536129,4.199339372044645 " />
			<path d="M5.733939514923557,3.8447125584205812 L5.733939514923557,82.07592321271937 " />
			<path d="M5.733939514923556,82.07592321271937 L100.072582233707,88.78898192895521 " />
			<path d="M100.072582233707,10.557771274656428 L100.072582233707,88.78898192895522 " />

       </g>
    </g>
    <g transform="translate(20,210.0)" stroke="rgb(0,0,255)">
        <line x1="30" y1="-30" x2="75" y2="-33" stroke-width="3" stroke="#000000" />
         <text x="80" y="-30" style="stroke:#000000">X </text>

        <line x1="30" y1="-30" x2="30" y2="-75" stroke-width="3" stroke="#000000" />
         <text x="25" y="-85" style="stroke:#000000">Y </text>

        <line x1="30" y1="-30" x2="58" y2="-15" stroke-width="3" stroke="#000000" />
         <text x="65" y="-5" style="stroke:#000000">Z </text>
        <!--
            <line x1="0" y1="0" x2="1.8673189398277015" y2="0" stroke-width="3" />
            <text x="0" y="20" style="stroke:#000000">1  mm </text>
        -->
    </g>
</svg>
