<?xml version="1.0" encoding="UTF-8" standalone="no"?>
<svg
   xmlns:svg="http://www.w3.org/2000/svg"
   xmlns="http://www.w3.org/2000/svg"
   width="800.0"
   height="240.0"

>
    <g transform="scale(1.8095011095589366, -1.8095011095589366)   translate(110.52770232826755,-110.14390707542765)" stroke-width="0.5526385116413378"  fill="none">
       <!-- hidden lines -->
       <g  stroke="rgb(160,160,160)" fill="none" stroke-dasharray="0.5526385116413378,0.5526385116413378" >
			<path d="M0.0,0.0 L181.69273360045838,12.92910258004403 " />
			<path d="M181.69273360045835,12.92910258004403 L182.35343444991457,12.545307327204132 " />
			<path d="M181.69273360045835,12.92910258004403 L181.69273360045835,99.09113684260089 " />
			<path d="M3.553626711718056,3.7189367482313793 L2.8929258622618437,3.671921829758492 " />
			<path d="M16.07862710069511,17.857618042006944 L16.07862710069511,18.288428213319733 " />
			<path d="M2.8929258622618437,3.6719218297584915 L2.8929258622618437,17.350144768939394 " />
			<path d="M16.07862710069511,18.28842821331973 L2.8929258622618437,17.35014476893939 " />
			<path d="M21.53412840049069,4.998414172386386 L20.873427551034478,4.9513992539134986 " />
			<path d="M34.05912878946774,19.137095466161952 L34.05912878946774,19.567905637474738 " />
			<path d="M20.873427551034478,4.9513992539134986 L20.873427551034478,18.629622193094402 " />
			<path d="M34.05912878946774,19.567905637474738 L20.873427551034478,18.629622193094402 " />
			<path d="M3.553626711718056,31.69712003291959 L2.8929258622618437,31.6501051144467 " />
			<path d="M16.07862710069511,45.83580132669516 L16.07862710069511,46.26661149800795 " />
			<path d="M2.8929258622618437,31.650105114446703 L2.8929258622618437,45.3283280536276 " />
			<path d="M16.07862710069511,46.26661149800795 L2.8929258622618437,45.32832805362761 " />
			<path d="M21.53412840049069,32.97659745707459 L20.873427551034478,32.92958253860171 " />
			<path d="M34.05912878946774,47.115278750850166 L34.05912878946774,47.54608892216295 " />
			<path d="M20.873427551034478,32.92958253860171 L20.873427551034478,46.60780547778261 " />
			<path d="M34.05912878946774,47.54608892216295 L20.873427551034478,46.60780547778261 " />
			<path d="M39.51463008926332,34.2560748812296 L38.85392923980711,34.20905996275671 " />
			<path d="M52.03963047824037,48.39475617500517 L52.03963047824037,48.825566346317956 " />
			<path d="M38.85392923980711,34.20905996275671 L38.85392923980711,47.88728290193762 " />
			<path d="M52.03963047824037,48.825566346317956 L38.85392923980711,47.88728290193762 " />
			<path d="M57.495131778035955,35.53555230538461 L56.83443092857974,35.48853738691172 " />
			<path d="M70.020132167013,49.674233599160175 L70.020132167013,50.10504377047296 " />
			<path d="M56.83443092857974,35.48853738691172 L56.83443092857974,49.16676032609263 " />
			<path d="M70.020132167013,50.10504377047296 L56.83443092857974,49.16676032609262 " />
			<path d="M147.3976402218991,13.954756141471432 L146.7369393724429,13.907741222998544 " />
			<path d="M159.92264061087616,28.093437435246997 L159.92264061087616,28.524247606559786 " />
			<path d="M146.7369393724429,13.907741222998542 L146.7369393724429,27.585964162179444 " />
			<path d="M159.9226406108762,28.524247606559783 L146.7369393724429,27.58596416217944 " />
			<path d="M165.37814191067173,15.234233565626436 L164.7174410612155,15.18721864715355 " />
			<path d="M177.9031422996488,29.37291485940201 L177.9031422996488,29.803725030714794 " />
			<path d="M164.7174410612155,15.18721864715355 L164.7174410612155,28.865441586334455 " />
			<path d="M177.9031422996488,29.80372503071479 L164.7174410612155,28.865441586334452 " />
			<path d="M111.43663684435384,39.373984577849626 L110.77593599489764,39.326969659376736 " />
			<path d="M123.9616372333309,53.51266587162519 L123.9616372333309,53.94347604293798 " />
			<path d="M110.77593599489764,39.326969659376736 L110.77593599489764,53.00519259855764 " />
			<path d="M123.9616372333309,53.943476042937974 L110.77593599489764,53.005192598557635 " />
			<path d="M129.4171385331265,40.65346200200463 L128.75643768367027,40.60644708353175 " />
			<path d="M141.94213892210354,54.79214329578021 L141.94213892210354,55.22295346709299 " />
			<path d="M128.75643768367027,40.60644708353175 L128.75643768367027,54.284670022712646 " />
			<path d="M141.94213892210357,55.22295346709299 L128.75643768367027,54.28467002271265 " />
			<path d="M147.3976402218991,41.932939426159635 L146.7369393724429,41.88592450768675 " />
			<path d="M159.92264061087616,56.07162071993521 L159.92264061087616,56.502430891248 " />
			<path d="M146.7369393724429,41.88592450768675 L146.7369393724429,55.56414744686765 " />
			<path d="M159.9226406108762,56.502430891248 L146.7369393724429,55.56414744686766 " />
			<path d="M165.37814191067173,43.212416850314646 L164.7174410612155,43.16540193184176 " />
			<path d="M177.9031422996488,57.351098144090216 L177.9031422996488,57.781908315403 " />
			<path d="M164.7174410612155,43.16540193184176 L164.7174410612155,56.84362487102266 " />
			<path d="M177.9031422996488,57.781908315403 L164.7174410612155,56.84362487102266 " />
			<path d="M75.47563346680857,55.46715191933175 L74.81493261735237,55.42013700085886 " />
			<path d="M88.00063385578564,69.60583321310732 L88.00063385578564,70.03664338442012 " />
			<path d="M74.81493261735237,55.42013700085886 L74.81493261735237,69.09835994003977 " />
			<path d="M88.00063385578564,70.03664338442012 L74.81493261735237,69.09835994003977 " />
			<path d="M3.5536267117180538,69.00136441250386 L2.8929258622618415,68.95434949403098 " />
			<path d="M34.05912878946774,84.41952313043443 L34.05912878946774,84.85033330174721 " />
			<path d="M2.8929258622618415,68.95434949403096 L2.8929258622618415,82.63257243321186 " />
			<path d="M34.059128789467735,84.85033330174721 L2.8929258622618415,82.63257243321188 " />
			<path d="M39.51463008926331,71.56031926081387 L38.8539292398071,71.51330434234099 " />
			<path d="M70.020132167013,86.97847797874444 L70.020132167013,87.40928815005722 " />
			<path d="M38.8539292398071,71.51330434234099 L38.8539292398071,85.19152728152189 " />
			<path d="M70.020132167013,87.40928815005724 L38.8539292398071,85.19152728152189 " />
			<path d="M93.45613515558122,56.74662934348675 L92.795434306125,56.69961442501386 " />
			<path d="M105.98113554455827,70.88531063726232 L105.98113554455827,71.31612080857512 " />
			<path d="M92.795434306125,56.69961442501386 L92.795434306125,70.37783736419478 " />
			<path d="M105.98113554455827,71.31612080857512 L92.795434306125,70.37783736419478 " />
			<path d="M111.43663684435384,76.6782289574339 L110.77593599489764,76.631214038961 " />
			<path d="M141.94213892210354,92.09638767536447 L141.94213892210354,92.52719784667725 " />
			<path d="M110.77593599489764,76.63121403896102 L110.77593599489764,90.30943697814192 " />
			<path d="M141.94213892210354,92.52719784667725 L110.77593599489764,90.3094369781419 " />
			<path d="M147.39764022189914,79.23718380574391 L146.73693937244292,79.19016888727101 " />
			<path d="M177.90314229964878,94.65534252367448 L177.90314229964878,95.08615269498728 " />
			<path d="M177.9031422996488,95.08615269498726 L146.73693937244292,92.86839182645191 " />
			<path d="M146.73693937244292,79.19016888727103 L146.73693937244292,92.86839182645193 " />
			<path d="M2.8929258622618437,3.671921829758492 L3.553626711718056,3.2881265769185952 " />
			<path d="M16.07862710069511,18.28842821331973 L16.73932795015132,17.904632960479834 " />
			<path d="M2.8929258622618437,17.35014476893939 L3.553626711718056,16.966349516099495 " />
			<path d="M20.873427551034478,4.9513992539134986 L21.53412840049069,4.567604001073601 " />
			<path d="M34.05912878946774,19.567905637474738 L34.719829638923954,19.18411038463484 " />
			<path d="M20.873427551034478,18.6296221930944 L21.53412840049069,18.245826940254503 " />
			<path d="M2.8929258622618437,31.6501051144467 L3.553626711718056,31.266309861606803 " />
			<path d="M16.07862710069511,46.26661149800794 L16.73932795015132,45.882816245168044 " />
			<path d="M2.8929258622618437,45.3283280536276 L3.553626711718056,44.944532800787705 " />
			<path d="M20.873427551034478,32.92958253860171 L21.53412840049069,32.54578728576181 " />
			<path d="M34.05912878946774,47.546088922162944 L34.719829638923954,47.16229366932305 " />
			<path d="M20.873427551034478,46.60780547778261 L21.53412840049069,46.22401022494272 " />
			<path d="M38.85392923980711,34.20905996275671 L39.51463008926332,33.825264709916816 " />
			<path d="M52.03963047824037,48.825566346317956 L52.70033132769658,48.44177109347806 " />
			<path d="M38.85392923980711,47.88728290193762 L39.51463008926332,47.50348764909772 " />
			<path d="M56.83443092857974,35.48853738691172 L57.495131778035955,35.10474213407183 " />
			<path d="M70.020132167013,50.10504377047296 L70.68083301646922,49.721248517633065 " />
			<path d="M56.83443092857974,49.16676032609262 L57.495131778035955,48.782965073252726 " />
			<path d="M146.7369393724429,13.907741222998542 L147.39764022189908,13.523945970158644 " />
			<path d="M159.92264061087616,28.524247606559783 L160.58334146033235,28.140452353719887 " />
			<path d="M146.7369393724429,27.585964162179444 L147.39764022189908,27.202168909339548 " />
			<path d="M164.7174410612155,15.18721864715355 L165.3781419106717,14.803423394313652 " />
			<path d="M177.9031422996488,29.80372503071479 L178.563843149105,29.419929777874895 " />
			<path d="M164.7174410612155,28.865441586334452 L165.3781419106717,28.481646333494556 " />
			<path d="M110.77593599489764,39.326969659376736 L111.43663684435386,38.94317440653684 " />
			<path d="M123.9616372333309,53.94347604293798 L124.62233808278712,53.559680790098085 " />
			<path d="M110.77593599489764,53.00519259855764 L111.43663684435386,52.621397345717746 " />
			<path d="M128.75643768367027,40.60644708353175 L129.41713853312646,40.22265183069185 " />
			<path d="M141.94213892210354,55.222953467092985 L142.60283977155973,54.83915821425309 " />
			<path d="M128.75643768367027,54.284670022712646 L129.41713853312646,53.90087476987275 " />
			<path d="M146.7369393724429,41.88592450768675 L147.39764022189908,41.50212925484686 " />
			<path d="M159.92264061087616,56.502430891248 L160.58334146033235,56.1186356384081 " />
			<path d="M146.7369393724429,55.56414744686765 L147.39764022189908,55.180352194027755 " />
			<path d="M164.7174410612155,43.16540193184176 L165.3781419106717,42.78160667900186 " />
			<path d="M177.9031422996488,57.781908315403 L178.563843149105,57.398113062563105 " />
			<path d="M164.7174410612155,56.84362487102266 L165.3781419106717,56.459829618182766 " />
			<path d="M74.81493261735237,55.42013700085886 L75.47563346680859,55.03634174801896 " />
			<path d="M88.00063385578564,70.0366433844201 L88.66133470524186,69.6528481315802 " />
			<path d="M74.81493261735237,69.09835994003977 L75.47563346680859,68.71456468719987 " />
			<path d="M2.892925862261841,68.95434949403098 L3.5536267117180533,68.57055424119108 " />
			<path d="M34.05912878946774,84.85033330174721 L34.719829638923954,84.46653804890731 " />
			<path d="M2.892925862261841,82.63257243321188 L3.5536267117180533,82.24877718037197 " />
			<path d="M38.8539292398071,71.51330434234099 L39.51463008926331,71.12950908950108 " />
			<path d="M70.020132167013,87.40928815005724 L70.68083301646922,87.02549289721733 " />
			<path d="M38.8539292398071,85.19152728152189 L39.51463008926331,84.80773202868198 " />
			<path d="M92.795434306125,56.69961442501387 L93.45613515558122,56.315819172173974 " />
			<path d="M105.98113554455827,71.3161208085751 L106.64183639401449,70.9323255557352 " />
			<path d="M92.795434306125,70.37783736419478 L93.45613515558122,69.99404211135487 " />
			<path d="M110.77593599489764,76.631214038961 L111.43663684435386,76.2474187861211 " />
			<path d="M141.94213892210354,92.52719784667725 L142.60283977155973,92.14340259383735 " />
			<path d="M110.77593599489764,90.3094369781419 L111.43663684435386,89.925641725302 " />
			<path d="M146.73693937244292,79.19016888727103 L147.3976402218991,78.80637363443113 " />
			<path d="M177.90314229964878,95.08615269498726 L178.56384314910497,94.70235744214736 " />
			<path d="M146.73693937244292,92.86839182645193 L147.3976402218991,92.48459657361202 " />

       </g>

       <!-- solid lines -->
       <g  stroke="rgb(0,0,0)" fill="none">
			<path d="M0.0,0.0 L0.6607008494562123,-0.38379525283989696 " />
			<path d="M0.6607008494562123,-0.3837952528398969 L0.6607008494562121,85.77823900971696 " />
			<path d="M-1.7626117159566338e-16,86.16203426255686 L0.6607008494562121,85.77823900971696 " />
			<path d="M0.0,0.0 L-1.762611715956634e-16,86.16203426255686 " />
			<path d="M0.6607008494562123,-0.3837952528398969 L182.35343444991457,12.545307327204133 " />
			<path d="M0.6607008494562121,85.77823900971696 L182.35343444991457,98.70734158976099 " />
			<path d="M182.35343444991457,12.545307327204132 L182.35343444991457,98.70734158976099 " />
			<path d="M16.73932795015132,4.226410021298933 L3.5536267117180564,3.288126576918595 " />
			<path d="M16.73932795015132,4.226410021298933 L16.73932795015132,17.904632960479837 " />
			<path d="M3.553626711718056,3.288126576918595 L3.553626711718056,16.9663495160995 " />
			<path d="M16.73932795015132,17.904632960479834 L3.5536267117180564,16.966349516099495 " />
			<path d="M34.719829638923954,5.50588744545394 L21.53412840049069,4.567604001073602 " />
			<path d="M34.719829638923954,5.50588744545394 L34.719829638923954,19.18411038463484 " />
			<path d="M21.53412840049069,4.567604001073602 L21.53412840049069,18.245826940254503 " />
			<path d="M34.719829638923954,19.18411038463484 L21.53412840049069,18.245826940254506 " />
			<path d="M16.73932795015132,32.204593305987146 L3.5536267117180564,31.266309861606803 " />
			<path d="M16.73932795015132,32.204593305987146 L16.73932795015132,45.882816245168044 " />
			<path d="M3.553626711718056,31.266309861606803 L3.553626711718056,44.944532800787705 " />
			<path d="M16.73932795015132,45.88281624516805 L3.5536267117180564,44.94453280078771 " />
			<path d="M34.719829638923954,33.48407073014215 L21.53412840049069,32.54578728576181 " />
			<path d="M34.719829638923954,33.48407073014215 L34.719829638923954,47.16229366932305 " />
			<path d="M21.53412840049069,32.54578728576181 L21.53412840049069,46.22401022494272 " />
			<path d="M34.719829638923954,47.162293669323056 L21.53412840049069,46.22401022494272 " />
			<path d="M52.70033132769658,34.763548154297155 L39.51463008926332,33.825264709916816 " />
			<path d="M52.70033132769658,34.763548154297155 L52.70033132769658,48.44177109347806 " />
			<path d="M39.51463008926332,33.825264709916816 L39.51463008926332,47.50348764909772 " />
			<path d="M52.70033132769658,48.44177109347806 L39.51463008926332,47.50348764909772 " />
			<path d="M70.68083301646922,36.043025578452166 L57.495131778035955,35.10474213407183 " />
			<path d="M70.68083301646922,36.043025578452166 L70.68083301646922,49.72124851763307 " />
			<path d="M57.495131778035955,35.10474213407183 L57.495131778035955,48.782965073252726 " />
			<path d="M70.68083301646922,49.721248517633065 L57.495131778035955,48.782965073252726 " />
			<path d="M160.58334146033238,14.462229414538985 L147.39764022189908,13.523945970158646 " />
			<path d="M160.58334146033238,14.462229414538985 L160.58334146033238,28.140452353719887 " />
			<path d="M147.3976402218991,13.523945970158644 L147.3976402218991,27.202168909339548 " />
			<path d="M160.58334146033238,28.140452353719887 L147.39764022189908,27.202168909339544 " />
			<path d="M178.56384314910503,15.741706838693991 L165.37814191067173,14.803423394313652 " />
			<path d="M178.56384314910503,15.741706838693991 L178.56384314910503,29.419929777874895 " />
			<path d="M165.37814191067173,14.803423394313652 L165.37814191067173,28.481646333494556 " />
			<path d="M178.56384314910503,29.419929777874895 L165.37814191067173,28.481646333494556 " />
			<path d="M124.62233808278712,39.88145785091718 L111.43663684435386,38.94317440653684 " />
			<path d="M124.62233808278711,39.88145785091718 L124.62233808278711,53.559680790098085 " />
			<path d="M111.43663684435384,38.94317440653684 L111.43663684435384,52.621397345717746 " />
			<path d="M124.62233808278712,53.55968079009808 L111.43663684435386,52.62139734571774 " />
			<path d="M142.60283977155976,41.16093527507219 L129.41713853312646,40.22265183069185 " />
			<path d="M142.60283977155976,41.16093527507219 L142.60283977155976,54.83915821425309 " />
			<path d="M129.4171385331265,40.22265183069185 L129.4171385331265,53.90087476987276 " />
			<path d="M142.60283977155976,54.839158214253096 L129.41713853312646,53.90087476987276 " />
			<path d="M160.58334146033238,42.440412699227196 L147.39764022189908,41.50212925484686 " />
			<path d="M160.58334146033238,42.440412699227196 L160.58334146033238,56.1186356384081 " />
			<path d="M147.3976402218991,41.50212925484686 L147.3976402218991,55.18035219402776 " />
			<path d="M160.58334146033238,56.1186356384081 L147.39764022189908,55.18035219402776 " />
			<path d="M178.56384314910503,43.7198901233822 L165.37814191067173,42.78160667900186 " />
			<path d="M178.56384314910503,43.7198901233822 L178.56384314910503,57.398113062563105 " />
			<path d="M165.37814191067173,42.78160667900186 L165.37814191067173,56.459829618182766 " />
			<path d="M178.56384314910503,57.398113062563105 L165.37814191067173,56.459829618182766 " />
			<path d="M88.66133470524184,55.9746251923993 L75.47563346680859,55.03634174801896 " />
			<path d="M88.66133470524184,55.9746251923993 L88.66133470524184,69.65284813158021 " />
			<path d="M75.47563346680857,55.03634174801897 L75.47563346680857,68.71456468719988 " />
			<path d="M88.66133470524184,69.65284813158021 L75.47563346680859,68.71456468719987 " />
			<path d="M34.71982963892395,70.78831510972641 L3.5536267117180533,68.57055424119108 " />
			<path d="M34.719829638923954,70.78831510972643 L34.719829638923954,84.46653804890732 " />
			<path d="M3.5536267117180538,68.57055424119108 L3.5536267117180538,82.24877718037197 " />
			<path d="M34.71982963892395,84.46653804890731 L3.5536267117180533,82.24877718037197 " />
			<path d="M70.68083301646922,73.34726995803643 L39.51463008926331,71.12950908950108 " />
			<path d="M70.68083301646922,73.34726995803643 L70.68083301646922,87.02549289721733 " />
			<path d="M39.51463008926331,71.12950908950108 L39.51463008926331,84.80773202868198 " />
			<path d="M70.68083301646922,87.02549289721733 L39.51463008926331,84.80773202868198 " />
			<path d="M106.64183639401448,57.254102616554306 L93.45613515558122,56.31581917217397 " />
			<path d="M106.64183639401449,57.25410261655431 L106.64183639401449,70.93232555573522 " />
			<path d="M93.45613515558122,56.315819172173974 L93.45613515558122,69.99404211135489 " />
			<path d="M106.64183639401448,70.93232555573522 L93.45613515558122,69.99404211135487 " />
			<path d="M142.60283977155976,78.46517965465645 L111.43663684435386,76.2474187861211 " />
			<path d="M142.60283977155976,78.46517965465645 L142.60283977155976,92.14340259383735 " />
			<path d="M111.43663684435384,76.24741878612112 L111.43663684435384,89.92564172530201 " />
			<path d="M142.60283977155976,92.14340259383735 L111.43663684435386,89.925641725302 " />
			<path d="M178.56384314910503,81.02413450296646 L147.39764022189914,78.80637363443111 " />
			<path d="M178.563843149105,81.02413450296648 L178.563843149105,94.70235744214737 " />
			<path d="M178.56384314910503,94.70235744214736 L147.39764022189914,92.48459657361201 " />
			<path d="M147.39764022189914,78.80637363443114 L147.39764022189914,92.48459657361204 " />
			<path d="M-1.7626117159566338e-16,86.16203426255686 L181.69273360045838,99.09113684260089 " />
			<path d="M181.69273360045835,99.09113684260089 L182.35343444991457,98.70734158976099 " />
			<path d="M16.07862710069511,4.61020527413883 L3.553626711718056,3.7189367482313793 " />
			<path d="M16.07862710069511,4.6102052741388295 L16.07862710069511,17.857618042006944 " />
			<path d="M34.05912878946774,5.889682698293837 L21.53412840049069,4.998414172386386 " />
			<path d="M34.05912878946774,5.889682698293837 L34.05912878946774,19.137095466161952 " />
			<path d="M16.07862710069511,32.58838855882704 L3.553626711718056,31.69712003291959 " />
			<path d="M16.07862710069511,32.58838855882704 L16.07862710069511,45.83580132669516 " />
			<path d="M34.05912878946774,33.867865982982046 L21.53412840049069,32.97659745707459 " />
			<path d="M34.05912878946774,33.867865982982046 L34.05912878946774,47.115278750850166 " />
			<path d="M52.03963047824037,35.14734340713705 L39.51463008926332,34.2560748812296 " />
			<path d="M52.03963047824037,35.14734340713705 L52.03963047824037,48.39475617500517 " />
			<path d="M70.020132167013,36.42682083129206 L57.495131778035955,35.53555230538461 " />
			<path d="M70.020132167013,36.42682083129206 L70.020132167013,49.674233599160175 " />
			<path d="M159.9226406108762,14.846024667378883 L147.3976402218991,13.954756141471432 " />
			<path d="M159.92264061087616,14.846024667378883 L159.92264061087616,28.093437435246997 " />
			<path d="M177.9031422996488,16.12550209153389 L165.37814191067173,15.234233565626436 " />
			<path d="M177.9031422996488,16.12550209153389 L177.9031422996488,29.37291485940201 " />
			<path d="M123.9616372333309,40.265253103757075 L111.43663684435384,39.373984577849626 " />
			<path d="M123.9616372333309,40.265253103757075 L123.9616372333309,53.51266587162519 " />
			<path d="M141.94213892210357,41.54473052791209 L129.4171385331265,40.65346200200463 " />
			<path d="M141.94213892210354,41.54473052791209 L141.94213892210354,54.79214329578021 " />
			<path d="M159.9226406108762,42.82420795206709 L147.3976402218991,41.932939426159635 " />
			<path d="M159.92264061087616,42.82420795206709 L159.92264061087616,56.07162071993521 " />
			<path d="M177.9031422996488,44.103685376222096 L165.37814191067173,43.212416850314646 " />
			<path d="M177.9031422996488,44.103685376222096 L177.9031422996488,57.351098144090216 " />
			<path d="M88.00063385578564,56.3584204452392 L75.47563346680857,55.46715191933175 " />
			<path d="M88.00063385578564,56.358420445239204 L88.00063385578564,69.60583321310732 " />
			<path d="M34.059128789467735,71.17211036256631 L3.5536267117180538,69.00136441250386 " />
			<path d="M34.05912878946774,71.17211036256631 L34.05912878946774,84.41952313043443 " />
			<path d="M70.020132167013,73.73106521087634 L39.51463008926331,71.56031926081387 " />
			<path d="M70.020132167013,73.73106521087632 L70.020132167013,86.97847797874444 " />
			<path d="M105.98113554455827,57.6378978693942 L93.45613515558122,56.74662934348675 " />
			<path d="M105.98113554455827,57.63789786939421 L105.98113554455827,70.88531063726232 " />
			<path d="M141.94213892210354,78.84897490749636 L111.43663684435384,76.6782289574339 " />
			<path d="M141.94213892210354,78.84897490749636 L141.94213892210354,92.09638767536447 " />
			<path d="M177.9031422996488,81.40792975580636 L147.39764022189914,79.23718380574391 " />
			<path d="M177.90314229964878,81.40792975580638 L177.90314229964878,94.65534252367448 " />
			<path d="M16.07862710069511,4.6102052741388295 L16.73932795015132,4.226410021298932 " />
			<path d="M34.05912878946774,5.889682698293837 L34.719829638923954,5.505887445453939 " />
			<path d="M16.07862710069511,32.58838855882704 L16.73932795015132,32.204593305987146 " />
			<path d="M34.05912878946774,33.867865982982046 L34.719829638923954,33.48407073014215 " />
			<path d="M52.03963047824037,35.14734340713705 L52.70033132769658,34.763548154297155 " />
			<path d="M70.020132167013,36.42682083129206 L70.68083301646922,36.043025578452166 " />
			<path d="M159.92264061087616,14.846024667378883 L160.58334146033235,14.462229414538985 " />
			<path d="M177.9031422996488,16.12550209153389 L178.563843149105,15.741706838693993 " />
			<path d="M123.9616372333309,40.265253103757075 L124.62233808278712,39.88145785091718 " />
			<path d="M141.94213892210354,41.54473052791209 L142.60283977155973,41.16093527507219 " />
			<path d="M159.92264061087616,42.82420795206709 L160.58334146033235,42.440412699227196 " />
			<path d="M177.9031422996488,44.103685376222096 L178.563843149105,43.7198901233822 " />
			<path d="M88.00063385578564,56.3584204452392 L88.66133470524186,55.9746251923993 " />
			<path d="M34.05912878946774,71.17211036256631 L34.719829638923954,70.78831510972641 " />
			<path d="M70.020132167013,73.73106521087634 L70.68083301646922,73.34726995803643 " />
			<path d="M105.98113554455827,57.63789786939421 L106.64183639401449,57.25410261655431 " />
			<path d="M141.94213892210354,78.84897490749636 L142.60283977155973,78.46517965465645 " />
			<path d="M177.90314229964878,81.40792975580636 L178.56384314910497,81.02413450296646 " />

       </g>
    </g>
    <g transform="translate(20,210.0)" stroke="rgb(0,0,255)">
        <line x1="30" y1="-30" x2="75" y2="-33" stroke-width="3" stroke="#000000" />
         <text x="80" y="-30" style="stroke:#000000">X </text>

        <line x1="30" y1="-30" x2="30" y2="-75" stroke-width="3" stroke="#000000" />
         <text x="25" y="-85" style="stroke:#000000">Y </text>

        <line x1="30" y1="-30" x2="58" y2="-15" stroke-width="3" stroke="#000000" />
         <text x="65" y="-5" style="stroke:#000000">Z </text>
        <!--
            <line x1="0" y1="0" x2="1.8095011095589366" y2="0" stroke-width="3" />
            <text x="0" y="20" style="stroke:#000000">1  mm </text>
        -->
    </g>
</svg>
