<?xml version="1.0" encoding="UTF-8" standalone="no"?>
<svg
   xmlns:svg="http://www.w3.org/2000/svg"
   xmlns="http://www.w3.org/2000/svg"
   width="800.0"
   height="240.0"

>
    <g transform="scale(1.317998606296994, -1.317998606296994)   translate(151.7452287464199,-151.36143349358002)" stroke-width="0.7587261437320996"  fill="none">
       <!-- hidden lines -->
       <g  stroke="rgb(160,160,160)" fill="none" stroke-dasharray="0.7587261437320996,0.7587261437320996" >
			<path d="M0.0,0.0 L338.37322075721727,24.078354675043034 " />
			<path d="M338.37322075721727,24.078354675043038 L339.03392160667346,23.69455942220314 " />
			<path d="M338.37322075721727,24.078354675043038 L338.37322075721727,136.18691061893804 " />
			<path d="M3.3058638931719755,3.2362269915913817 L2.645163043715763,3.1892120731184943 " />
			<path d="M15.830864282149028,17.374908285366953 L15.830864282149028,17.805718456679735 " />
			<path d="M2.645163043715763,3.189212073118494 L2.645163043715763,16.867435012299396 " />
			<path d="M15.83086428214903,17.805718456679735 L2.645163043715763,16.867435012299396 " />
			<path d="M21.286365581944608,4.515704415746388 L20.625664732488396,4.4686894972735 " />
			<path d="M33.811365970921656,18.654385709521954 L33.811365970921656,19.08519588083474 " />
			<path d="M20.625664732488396,4.468689497273501 L20.625664732488396,18.146912436454404 " />
			<path d="M33.81136597092166,19.08519588083474 L20.625664732488396,18.1469124364544 " />
			<path d="M39.26686727071724,5.795181839901395 L38.60616642126103,5.748166921428507 " />
			<path d="M51.7918676596943,19.933863133676965 L51.7918676596943,20.364673304989747 " />
			<path d="M38.60616642126103,5.748166921428507 L38.60616642126103,19.426389860609408 " />
			<path d="M51.7918676596943,20.364673304989747 L38.60616642126103,19.42638986060941 " />
			<path d="M57.247368959489876,7.074659264056401 L56.58666811003366,7.027644345583513 " />
			<path d="M69.77236934846692,21.21334055783197 L69.77236934846692,21.644150729144755 " />
			<path d="M56.58666811003366,7.027644345583513 L56.58666811003366,20.705867284764416 " />
			<path d="M69.77236934846692,21.644150729144755 L56.58666811003366,20.705867284764416 " />
			<path d="M75.78648662021895,7.880079367394575 L75.16686237839062,7.779752434940425 " />
			<path d="M87.19425506528312,22.966875302803807 L87.15317845765522,23.45099748809785 " />
			<path d="M75.16686237839062,7.779752434940425 L74.01765279330625,21.324148815766534 " />
			<path d="M87.15317845765523,23.45099748809785 L74.01765279330624,21.32414881576653 " />
			<path d="M16.791240159751446,22.84795724949978 L16.130539310295234,22.80094233102689 " />
			<path d="M38.30649139311482,37.62637725535285 L38.30649139311482,38.057187426665635 " />
			<path d="M16.130539310295234,22.80094233102689 L16.130539310295234,36.479165270207794 " />
			<path d="M38.306491393114825,38.057187426665635 L16.130539310295234,36.479165270207794 " />
			<path d="M43.7619926929104,24.76717338573229 L43.101291843454185,24.720158467259402 " />
			<path d="M56.286993081887445,38.905854679507854 L56.286993081887445,39.33666485082064 " />
			<path d="M43.101291843454185,24.720158467259402 L43.101291843454185,38.3983814064403 " />
			<path d="M56.28699308188745,39.33666485082064 L43.101291843454185,38.3983814064403 " />
			<path d="M62.30111035363946,25.57259348907046 L61.68148611181115,25.47226655661631 " />
			<path d="M73.70887879870367,40.65938942447969 L73.66780219107576,41.143511609773746 " />
			<path d="M61.68148611181114,25.472266556616308 L60.53227652672677,39.01666293744242 " />
			<path d="M73.66780219107576,41.14351160977373 L60.53227652672678,39.01666293744241 " />
			<path d="M94.36242639384437,13.399284741537654 L93.79266819819694,13.254524890450877 " />
			<path d="M104.57931866920295,29.332685871866808 L104.48837601539417,29.86124097579349 " />
			<path d="M93.79266819819694,13.254524890450874 L91.5029952068824,26.562013678133965 " />
			<path d="M104.48837601539418,29.86124097579349 L91.50299520688242,26.56201367813396 " />
			<path d="M112.34292808261704,19.3417927131407 L111.77316988696958,19.19703286205392 " />
			<path d="M122.55982035797558,35.27519384346986 L122.46887770416681,35.80374894739653 " />
			<path d="M111.77316988696958,19.197032862053916 L109.48349689565507,32.50452164973701 " />
			<path d="M122.46887770416683,35.80374894739653 L109.48349689565507,32.50452164973701 " />
			<path d="M130.32342977138967,25.28430068474374 L129.7536715757422,25.13954083365696 " />
			<path d="M140.5403220467482,41.21770181507289 L140.44937939293942,41.74625691899957 " />
			<path d="M129.7536715757422,25.139540833656955 L127.4639985844277,38.44702962134005 " />
			<path d="M140.44937939293945,41.74625691899958 L127.46399858442769,38.44702962134005 " />
			<path d="M80.87705012726494,31.091798863213537 L80.30729193161747,30.947039012126755 " />
			<path d="M91.09394240262347,47.02519999354271 L91.0029997488147,47.55375509746938 " />
			<path d="M80.30729193161748,30.94703901212676 L78.01761894030295,44.25452779980985 " />
			<path d="M91.0029997488147,47.55375509746938 L78.01761894030295,44.25452779980985 " />
			<path d="M12.29616193047611,41.18021344146162 L11.635461081019898,41.133198522988735 " />
			<path d="M38.30653858603263,56.27850280335345 L38.30653858603263,56.70931297466623 " />
			<path d="M11.635461081019898,41.133198522988735 L11.635461081019898,54.81142146216963 " />
			<path d="M38.306538586032644,56.70931297466623 L11.635461081019898,54.81142146216964 " />
			<path d="M43.7619926929104,43.419295575524416 L43.101291843454185,43.37228065705153 " />
			<path d="M56.286993081887445,57.55797686929999 L56.286993081887445,57.98878704061278 " />
			<path d="M43.101291843454185,43.37228065705153 L43.101291843454185,57.05050359623243 " />
			<path d="M56.28699308188745,57.98878704061278 L43.101291843454185,57.05050359623244 " />
			<path d="M62.30111035363946,44.224715678862594 L61.681486111811154,44.12438874640845 " />
			<path d="M73.70887879870367,59.31151161427183 L73.66780219107576,59.795633799565884 " />
			<path d="M61.68148611181114,44.12438874640844 L60.53227652672677,57.66878512723456 " />
			<path d="M73.66780219107575,59.79563379956587 L60.53227652672678,57.66878512723455 " />
			<path d="M80.87705012726491,49.743921053005685 L80.30729193161748,49.59916120191891 " />
			<path d="M91.09394240262347,65.67732218333484 L91.0029997488147,66.20587728726152 " />
			<path d="M80.30729193161747,49.5991612019189 L78.01761894030295,62.906649989601995 " />
			<path d="M91.00299974881472,66.20587728726152 L78.01761894030295,62.90664998960199 " />
			<path d="M98.85755181603753,37.034306834816576 L98.2877936203901,36.8895469837298 " />
			<path d="M109.0744440913961,52.96770796514575 L108.98350143758734,53.49626306907242 " />
			<path d="M98.28779362039009,36.8895469837298 L95.99812062907557,50.19703577141289 " />
			<path d="M108.98350143758734,53.49626306907242 L95.99812062907559,50.1970357714129 " />
			<path d="M116.83805350481019,42.976814806419625 L116.26829530916274,42.83205495533284 " />
			<path d="M127.05494578016872,58.910215936748784 L126.96400312635994,59.438771040675455 " />
			<path d="M116.26829530916274,42.83205495533284 L113.9786223178482,56.139543743015935 " />
			<path d="M126.96400312635997,59.438771040675455 L113.9786223178482,56.139543743015935 " />
			<path d="M134.8185551935828,48.91932277802266 L134.2487969979354,48.774562926935886 " />
			<path d="M145.03544746894138,64.85272390835182 L144.9445048151326,65.3812790122785 " />
			<path d="M134.24879699793536,48.774562926935886 L131.95912400662084,62.08205171461898 " />
			<path d="M144.94450481513263,65.3812790122785 L131.95912400662084,62.08205171461897 " />
			<path d="M213.58317997268747,24.023718387327524 L212.8713816060977,24.10326478035624 " />
			<path d="M228.09533788879043,35.98119745216953 L228.14643540592397,36.285446311980714 " />
			<path d="M212.8713816060977,24.10326478035624 L215.16105459741223,37.736615988542724 " />
			<path d="M228.146435405924,36.285446311980714 L215.16105459741223,37.736615988542724 " />
			<path d="M232.03878249666093,20.07198245323694 L231.3470425700668,20.085538785526303 " />
			<path d="M245.60073874236227,33.16582713967406 L245.63177781950017,33.5360660602246 " />
			<path d="M231.3470425700668,20.085538785526303 L232.49625215515115,33.79348874735801 " />
			<path d="M245.63177781950017,33.53606606022459 L232.49625215515115,33.793488747358005 " />
			<path d="M195.6026782839148,27.407271510620554 L194.89087991732507,27.486817903649268 " />
			<path d="M210.1148362000178,39.36475057546256 L210.16593371715135,39.66899943527373 " />
			<path d="M194.89087991732504,27.48681790364927 L197.18055290863956,41.12016911183575 " />
			<path d="M210.16593371715135,39.66899943527373 L197.18055290863958,41.12016911183575 " />
			<path d="M177.6221765951422,30.790824633913576 L176.91037822855245,30.87037102694229 " />
			<path d="M192.13433451124519,42.748303698755585 L192.18543202837873,43.05255255856677 " />
			<path d="M176.91037822855242,30.870371026942294 L179.20005121986696,44.50372223512878 " />
			<path d="M192.18543202837873,43.05255255856677 L179.20005121986696,44.50372223512878 " />
			<path d="M241.0290333410472,39.36384335510658 L240.3372934144531,39.37739968739594 " />
			<path d="M254.59098958674852,52.45768804154369 L254.62202866388643,52.82792696209424 " />
			<path d="M240.3372934144531,39.37739968739594 L241.48650299953744,53.08534964922766 " />
			<path d="M254.62202866388645,52.82792696209423 L241.48650299953746,53.085349649227645 " />
			<path d="M250.53776211379565,20.829041573722723 L249.87706126433946,20.782026655249837 " />
			<path d="M263.0627625027728,34.967722867498296 L263.0627625027728,35.398533038811074 " />
			<path d="M249.87706126433946,20.782026655249837 L249.87706126433946,34.460249594430735 " />
			<path d="M263.0627625027728,35.398533038811074 L249.87706126433946,34.460249594430735 " />
			<path d="M268.51826380256824,22.108518997877724 L267.85756295311205,22.061504079404838 " />
			<path d="M281.04326419154535,36.24720029165329 L281.04326419154535,36.67801046296608 " />
			<path d="M267.85756295311205,22.06150407940484 L267.85756295311205,35.73972701858574 " />
			<path d="M281.04326419154535,36.67801046296608 L267.85756295311205,35.73972701858574 " />
			<path d="M286.4987654913409,23.38799642203273 L285.8380646418847,23.340981503559846 " />
			<path d="M299.02376588031797,37.5266777158083 L299.02376588031797,37.95748788712109 " />
			<path d="M285.8380646418847,23.34098150355985 L285.8380646418847,37.01920444274075 " />
			<path d="M299.023765880318,37.95748788712108 L285.8380646418847,37.019204442740744 " />
			<path d="M304.47926718011354,24.66747384618774 L303.81856633065735,24.620458927714854 " />
			<path d="M334.9847692578632,40.08563256411831 L334.9847692578632,40.5164427354311 " />
			<path d="M303.81856633065735,24.620458927714854 L303.81856633065735,38.298681866895755 " />
			<path d="M334.98476925786326,40.5164427354311 L303.81856633065735,38.298681866895755 " />
			<path d="M259.52801295818193,40.12090247559236 L258.86731210872574,40.07388755711948 " />
			<path d="M272.05301334715904,54.259583769367936 L272.05301334715904,54.69039394068072 " />
			<path d="M258.86731210872574,40.07388755711948 L258.86731210872574,53.752110496300375 " />
			<path d="M272.05301334715904,54.69039394068072 L258.86731210872574,53.752110496300375 " />
			<path d="M277.5085146469546,41.40037989974737 L276.8478137974984,41.35336498127449 " />
			<path d="M290.0335150359317,55.53906119352294 L290.0335150359317,55.969871364835726 " />
			<path d="M276.8478137974984,41.35336498127448 L276.8478137974984,55.03158792045539 " />
			<path d="M290.0335150359317,55.969871364835726 L276.8478137974984,55.03158792045539 " />
			<path d="M295.48901633572723,42.679857323902375 L294.82831548627104,42.63284240542949 " />
			<path d="M308.01401672470433,56.818538617677945 L308.01401672470433,57.24934878899074 " />
			<path d="M294.82831548627104,42.63284240542949 L294.82831548627104,56.3110653446104 " />
			<path d="M308.01401672470433,57.24934878899073 L294.82831548627104,56.31106534461039 " />
			<path d="M313.4695180244999,43.95933474805739 L312.8088171750437,43.9123198295845 " />
			<path d="M334.98476925786326,58.73775475391045 L334.98476925786326,59.168564925223244 " />
			<path d="M312.8088171750437,43.912319829584504 L312.8088171750437,57.5905427687654 " />
			<path d="M334.98476925786326,59.16856492522324 L312.8088171750437,57.590542768765395 " />
			<path d="M222.5734308170738,43.31557928919716 L221.86163245048402,43.395125682225874 " />
			<path d="M237.08558873317673,55.27305835403916 L237.13668625031028,55.57730721385035 " />
			<path d="M221.86163245048405,43.39512568222589 L224.15130544179857,57.028476890412364 " />
			<path d="M237.1366862503103,55.57730721385035 L224.15130544179854,57.02847689041236 " />
			<path d="M204.5929291283011,46.69913241249021 L203.88113076171138,46.778678805518915 " />
			<path d="M219.10508704440414,58.6566114773322 L219.15618456153769,58.96086033714339 " />
			<path d="M203.88113076171135,46.77867880551892 L206.1708037530259,60.412030013705404 " />
			<path d="M219.15618456153769,58.96086033714338 L206.1708037530259,60.41203001370539 " />
			<path d="M168.63192575075587,53.466238659076254 L167.92012738416614,53.54578505210497 " />
			<path d="M183.14408366685885,65.42371772391824 L183.1951811839924,65.72796658372944 " />
			<path d="M167.9201273841661,53.54578505210496 L170.20980037548063,67.17913626029144 " />
			<path d="M183.19518118399242,65.72796658372943 L170.20980037548065,67.17913626029144 " />
			<path d="M186.61242743952852,50.08268553578323 L185.90062907293876,50.16223192881194 " />
			<path d="M201.1245853556315,62.04016460062522 L201.17568287276504,62.344413460436414 " />
			<path d="M185.90062907293876,50.16223192881194 L188.19030206425327,63.79558313699843 " />
			<path d="M201.17568287276504,62.344413460436414 L188.19030206425327,63.795583136998424 " />
			<path d="M227.0685562392669,62.28757083502806 L226.35675787267718,62.36711722805678 " />
			<path d="M241.5807141553699,74.24504989987005 L241.63181167250343,74.54929875968124 " />
			<path d="M226.35675787267715,62.36711722805677 L228.64643086399167,76.00046843624325 " />
			<path d="M241.63181167250346,74.54929875968125 L228.6464308639917,76.00046843624325 " />
			<path d="M245.52415876324037,58.33583490093747 L244.83241883664624,58.34939123322683 " />
			<path d="M259.0861150089417,71.42967958737458 L259.1171540860796,71.79991850792513 " />
			<path d="M244.83241883664624,58.34939123322683 L245.9816284217306,72.05734119505854 " />
			<path d="M259.1171540860796,71.79991850792513 L245.98162842173062,72.05734119505854 " />
			<path d="M264.0231383803751,59.09289402142325 L263.3624375309189,59.04587910295036 " />
			<path d="M276.5481387693522,73.23157531519882 L276.5481387693522,73.6623854865116 " />
			<path d="M263.3624375309189,59.04587910295036 L263.3624375309189,72.72410204213126 " />
			<path d="M276.5481387693522,73.66238548651161 L263.3624375309189,72.72410204213126 " />
			<path d="M282.00364006914776,60.37237144557825 L281.3429392196916,60.32535652710537 " />
			<path d="M294.52864045812487,74.51105273935383 L294.52864045812487,74.94186291066661 " />
			<path d="M281.3429392196916,60.32535652710537 L281.3429392196916,74.00357946628628 " />
			<path d="M294.52864045812487,74.94186291066661 L281.3429392196916,74.00357946628627 " />
			<path d="M299.9841889508382,61.65185222794172 L299.323488101382,61.604837309468834 " />
			<path d="M334.98481645078107,77.38988030191105 L334.98481645078107,77.82069047322383 " />
			<path d="M299.323488101382,61.604837309468834 L299.323488101382,75.28306024864975 " />
			<path d="M334.98481645078107,77.82069047322383 L299.323488101382,75.28306024864973 " />
			<path d="M3.305911086089794,59.19259691917626 L2.645210236633582,59.14558200070338 " />
			<path d="M38.30653858603263,74.93062499314559 L38.30653858603263,75.36143516445837 " />
			<path d="M2.645210236633582,59.14558200070337 L2.645210236633582,72.82380493988427 " />
			<path d="M38.30653858603263,75.36143516445837 L2.645210236633582,72.82380493988427 " />
			<path d="M43.7619926929104,62.07141776531656 L43.101291843454185,62.02440284684368 " />
			<path d="M56.286993081887445,76.21009905909213 L56.286993081887445,76.64090923040492 " />
			<path d="M43.101291843454185,62.02440284684367 L43.101291843454185,75.70262578602458 " />
			<path d="M56.28699308188745,76.64090923040492 L43.101291843454185,75.70262578602458 " />
			<path d="M62.30111035363946,62.87683786865473 L61.681486111811154,62.77651093620059 " />
			<path d="M73.70887879870367,77.96363380406397 L73.66780219107576,78.44775598935803 " />
			<path d="M61.68148611181114,62.77651093620059 L60.532276526726776,76.3209073170267 " />
			<path d="M73.66780219107575,78.44775598935803 L60.532276526726776,76.32090731702671 " />
			<path d="M80.87705012726492,68.39604324279782 L80.30729193161747,68.25128339171103 " />
			<path d="M91.09394240262348,84.32944437312698 L91.00299974881472,84.85799947705367 " />
			<path d="M80.30729193161747,68.25128339171104 L78.01761894030295,81.55877217939414 " />
			<path d="M91.00299974881472,84.85799947705365 L78.01761894030295,81.55877217939413 " />
			<path d="M98.85755181603754,55.686429024608714 L98.2877936203901,55.54166917352193 " />
			<path d="M109.07444409139612,71.61983015493787 L108.98350143758735,72.14838525886455 " />
			<path d="M98.2877936203901,55.54166917352194 L95.99812062907559,68.84915796120504 " />
			<path d="M108.98350143758735,72.14838525886455 L95.99812062907559,68.84915796120502 " />
			<path d="M116.83805350481019,61.62893699621177 L116.26829530916274,61.48417714512499 " />
			<path d="M127.05494578016872,77.56233812654092 L126.96400312635996,78.0908932304676 " />
			<path d="M116.26829530916275,61.48417714512498 L113.97862231784822,74.79166593280807 " />
			<path d="M126.96400312635997,78.0908932304676 L113.97862231784822,74.79166593280807 " />
			<path d="M134.81855519358282,67.57144496781478 L134.2487969979354,67.42668511672801 " />
			<path d="M145.03544746894138,83.50484609814397 L144.9445048151326,84.03340120207065 " />
			<path d="M134.2487969979354,67.42668511672802 L131.95912400662084,80.73417390441112 " />
			<path d="M144.94450481513263,84.03340120207064 L131.95912400662087,80.73417390441111 " />
			<path d="M98.85755181603756,74.33855121440085 L98.2877936203901,74.19379136331408 " />
			<path d="M109.07444409139612,90.27195234473001 L108.98350143758734,90.80050744865669 " />
			<path d="M98.2877936203901,74.19379136331406 L95.99812062907557,87.50128015099716 " />
			<path d="M108.98350143758735,90.80050744865669 L95.99812062907557,87.50128015099716 " />
			<path d="M116.83805350481018,80.2810591860039 L116.26829530916272,80.13629933491711 " />
			<path d="M127.05494578016874,96.21446031633305 L126.96400312635997,96.74301542025974 " />
			<path d="M116.26829530916274,80.13629933491711 L113.9786223178482,93.44378812260021 " />
			<path d="M126.96400312635997,96.74301542025972 L113.9786223178482,93.4437881226002 " />
			<path d="M3.3059110860897922,77.84471910896839 L2.6452102366335803,77.7977041904955 " />
			<path d="M20.326036897260003,92.3032697587827 L20.326036897260003,92.73407993009549 " />
			<path d="M2.6452102366335803,77.7977041904955 L2.6452102366335803,91.47592712967639 " />
			<path d="M20.326036897260003,92.73407993009549 L2.6452102366335803,91.47592712967639 " />
			<path d="M25.781538197055582,79.44406588916215 L25.12083734759937,79.39705097068926 " />
			<path d="M42.80166400822579,93.90261653897646 L42.80166400822579,94.33342671028925 " />
			<path d="M25.12083734759937,79.39705097068926 L25.12083734759937,93.07527390987016 " />
			<path d="M42.80166400822579,94.33342671028925 L25.12083734759937,93.07527390987016 " />
			<path d="M48.25716530802137,81.04341266935592 L47.59646445856516,80.99639775088303 " />
			<path d="M65.27729111919159,95.50196331917022 L65.27729111919159,95.93277349048302 " />
			<path d="M47.59646445856516,80.99639775088302 L47.59646445856516,94.67462069006392 " />
			<path d="M65.27729111919159,95.93277349048302 L47.59646445856516,94.67462069006393 " />
			<path d="M77.02256938749872,87.38668309817527 L76.47488722429958,87.226948699554 " />
			<path d="M121.9191756755486,113.88832612846238 L121.80615698929155,114.43185577992357 " />
			<path d="M76.47488722429956,87.22694869955399 L73.73342578519909,100.41118955242847 " />
			<path d="M121.80615698929154,114.43185577992355 L73.73342578519909,100.41118955242847 " />
			<path d="M130.95229396963617,99.52245124776461 L130.4396761041428,99.34348764514232 " />
			<path d="M139.9114578485017,116.19652877038916 L139.76337486453883,116.75928762585133 " />
			<path d="M130.4396761041428,99.3434876451423 L127.02696550060438,112.31279081472668 " />
			<path d="M139.76337486453883,116.75928762585134 L127.02696550060438,112.3127908147267 " />
			<path d="M191.1075528617217,69.05467708161413 L190.39575449513194,69.13422347464284 " />
			<path d="M205.61971077782465,81.0121561464561 L205.6708082949582,81.31640500626729 " />
			<path d="M190.39575449513194,69.13422347464282 L192.68542748644646,82.7675746828293 " />
			<path d="M205.6708082949582,81.3164050062673 L192.68542748644646,82.7675746828293 " />
			<path d="M173.12705117294905,72.43823020490714 L172.4152528063593,72.51777659793586 " />
			<path d="M187.639209089052,84.39570926974915 L187.69030660618554,84.69995812956033 " />
			<path d="M172.41525280635926,72.51777659793585 L174.70492579767378,86.15112780612235 " />
			<path d="M187.69030660618554,84.69995812956033 L174.70492579767378,86.15112780612235 " />
			<path d="M209.08805455049432,65.67112395832109 L208.37625618390456,65.75067035134981 " />
			<path d="M223.60021246659727,77.6286030231631 L223.6513099837308,77.93285188297428 " />
			<path d="M208.37625618390456,65.7506703513498 L210.66592917521908,79.38402155953628 " />
			<path d="M223.65130998373087,77.93285188297428 L210.66592917521908,79.3840215595363 " />
			<path d="M195.60267828391486,88.026668627445 L194.89087991732507,88.10621502047373 " />
			<path d="M210.11483620001778,99.98414769228701 L210.16593371715132,100.28839655209818 " />
			<path d="M194.89087991732507,88.10621502047371 L197.18055290863958,101.7395662286602 " />
			<path d="M210.16593371715135,100.28839655209818 L197.18055290863958,101.7395662286602 " />
			<path d="M231.56368166146012,81.25956238085894 L230.85188329487033,81.33910877388766 " />
			<path d="M246.07583957756307,93.21704144570096 L246.12693709469661,93.52129030551215 " />
			<path d="M230.85188329487036,81.33910877388767 L233.14155628618488,94.97245998207414 " />
			<path d="M246.12693709469664,93.52129030551215 L233.14155628618488,94.97245998207416 " />
			<path d="M213.58317997268745,84.64311550415196 L212.8713816060977,84.72266189718069 " />
			<path d="M228.09533788879045,96.600594568994 L228.146435405924,96.90484342880515 " />
			<path d="M212.87138160609769,84.72266189718069 L215.1610545974122,98.35601310536717 " />
			<path d="M228.146435405924,96.90484342880517 L215.16105459741223,98.35601310536718 " />
			<path d="M250.01928418543355,77.30782644676837 L249.32754425883945,77.32138277905773 " />
			<path d="M263.5812404311349,90.40167113320547 L263.6122795082728,90.77191005375602 " />
			<path d="M249.32754425883942,77.32138277905773 L250.4767538439238,91.02933274088943 " />
			<path d="M263.6122795082728,90.77191005375602 L250.4767538439238,91.02933274088943 " />
			<path d="M268.51826380256824,78.06488556725414 L267.85756295311205,78.01787064878125 " />
			<path d="M281.04326419154535,92.20356686102971 L281.04326419154535,92.6343770323425 " />
			<path d="M267.85756295311205,78.01787064878125 L267.85756295311205,91.69609358796217 " />
			<path d="M281.04326419154535,92.6343770323425 L267.85756295311205,91.69609358796217 " />
			<path d="M288.7463282024375,79.50429766942852 L288.0856273529813,79.45728275095564 " />
			<path d="M314.75670485799407,94.60258703132035 L314.75670485799407,95.03339720263314 " />
			<path d="M288.0856273529813,79.45728275095564 L288.0856273529813,93.13550569013654 " />
			<path d="M314.7567048579941,95.03339720263314 L288.0856273529813,93.13550569013654 " />
			<path d="M322.45976886888616,81.90331783971916 L321.79906801942997,81.85630292124628 " />
			<path d="M334.98476925786326,96.04199913349473 L334.98476925786326,96.47280930480753 " />
			<path d="M321.79906801942997,81.85630292124628 L321.79906801942997,95.53452586042718 " />
			<path d="M334.98476925786326,96.47280930480753 L321.79906801942997,95.53452586042718 " />
			<path d="M200.29572102903887,106.92595013694918 L199.57742634995367,107.04686253537702 " />
			<path d="M250.37304767682528,112.26174302785854 L250.43064150645424,112.52462588227061 " />
			<path d="M199.5774263499537,107.04686253537702 L202.54356374580246,120.58558135686036 " />
			<path d="M250.43064150645424,112.52462588227061 L202.54356374580243,120.58558135686037 " />
			<path d="M181.3097773924906,106.98130735739163 L180.59288976012783,107.20096627879654 " />
			<path d="M197.43698455828306,116.41453720569213 L197.4931713411896,116.57867353712713 " />
			<path d="M197.4931713411896,116.57867353712709 L185.10266518754622,120.3752032783364 " />
			<path d="M180.59288976012783,107.20096627879654 L185.10266518754625,120.37520327833644 " />
			<path d="M259.52801295818193,96.07726904496877 L258.86731210872574,96.03025412649589 " />
			<path d="M272.05301334715904,110.21595033874434 L272.05301334715904,110.64676051005712 " />
			<path d="M258.86731210872574,96.03025412649589 L258.86731210872574,109.70847706567679 " />
			<path d="M272.05301334715904,110.64676051005712 L258.86731210872574,109.70847706567679 " />
			<path d="M277.5085146469546,97.35674646912378 L276.8478137974984,97.3097315506509 " />
			<path d="M290.0335150359317,111.49542776289934 L290.0335150359317,111.92623793421214 " />
			<path d="M276.8478137974984,97.3097315506509 L276.8478137974984,110.9879544898318 " />
			<path d="M290.0335150359317,111.92623793421212 L276.8478137974984,110.9879544898318 " />
			<path d="M295.48901633572723,98.63622389327878 L294.82831548627104,98.5892089748059 " />
			<path d="M308.01401672470433,112.77490518705434 L308.01401672470433,113.20571535836714 " />
			<path d="M294.82831548627104,98.5892089748059 L294.82831548627104,112.2674319139868 " />
			<path d="M308.01401672470433,113.20571535836714 L294.82831548627104,112.2674319139868 " />
			<path d="M313.46951802449985,99.91570131743379 L312.80881717504366,99.8686863989609 " />
			<path d="M325.99451841347695,114.05438261120935 L325.99451841347695,114.48519278252215 " />
			<path d="M312.80881717504366,99.8686863989609 L312.80881717504366,113.5469093381418 " />
			<path d="M325.99451841347695,114.48519278252215 L312.80881717504366,113.5469093381418 " />
			<path d="M2.645163043715763,3.189212073118494 L3.3058638931719755,2.805416820278597 " />
			<path d="M15.830864282149028,17.805718456679735 L16.49156513160524,17.42192320383984 " />
			<path d="M2.645163043715763,16.867435012299396 L3.3058638931719755,16.4836397594595 " />
			<path d="M20.625664732488392,4.468689497273501 L21.286365581944604,4.084894244433603 " />
			<path d="M33.811365970921656,19.08519588083474 L34.47206682037787,18.701400627994843 " />
			<path d="M20.625664732488392,18.146912436454404 L21.286365581944604,17.763117183614508 " />
			<path d="M38.60616642126103,5.748166921428507 L39.26686727071724,5.36437166858861 " />
			<path d="M51.7918676596943,20.364673304989747 L52.45256850915051,19.98087805214985 " />
			<path d="M38.60616642126103,19.426389860609408 L39.26686727071724,19.042594607769512 " />
			<path d="M56.58666811003366,7.027644345583513 L57.247368959489876,6.643849092743616 " />
			<path d="M69.77236934846692,21.644150729144755 L70.43307019792314,21.26035547630486 " />
			<path d="M56.58666811003366,20.705867284764416 L57.247368959489876,20.32207203192452 " />
			<path d="M75.16686237839062,7.779752434940426 L75.82756322784684,7.3959571821005285 " />
			<path d="M87.15317845765523,23.45099748809785 L87.81387930711145,23.067202235257955 " />
			<path d="M74.01765279330624,21.32414881576653 L74.67835364276246,20.940353562926635 " />
			<path d="M16.130539310295234,22.80094233102689 L16.791240159751446,22.417147078186993 " />
			<path d="M38.30649139311482,38.05718742666563 L38.96719224257103,37.67339217382573 " />
			<path d="M16.130539310295234,36.47916527020779 L16.791240159751446,36.09537001736789 " />
			<path d="M43.101291843454185,24.7201584672594 L43.7619926929104,24.336363214419503 " />
			<path d="M56.286993081887445,39.33666485082064 L56.94769393134366,38.952869597980744 " />
			<path d="M43.101291843454185,38.3983814064403 L43.7619926929104,38.014586153600405 " />
			<path d="M61.68148611181115,25.47226655661631 L62.34218696126736,25.088471303776416 " />
			<path d="M73.66780219107576,41.14351160977374 L74.32850304053198,40.75971635693384 " />
			<path d="M60.532276526726776,39.01666293744242 L61.19297737618299,38.63286768460252 " />
			<path d="M93.79266819819694,13.254524890450876 L94.45336904765315,12.870729637610978 " />
			<path d="M104.48837601539417,29.861240975793486 L105.14907686485039,29.47744572295359 " />
			<path d="M91.50299520688242,26.562013678133965 L92.16369605633864,26.17821842529407 " />
			<path d="M111.77316988696958,19.197032862053916 L112.4338707364258,18.81323760921402 " />
			<path d="M122.46887770416681,35.80374894739653 L123.12957855362303,35.41995369455663 " />
			<path d="M109.48349689565505,32.504521649737 L110.14419774511127,32.120726396897105 " />
			<path d="M129.7536715757422,25.139540833656955 L130.4143724251984,24.75574558081706 " />
			<path d="M140.44937939293942,41.74625691899956 L141.1100802423956,41.36246166615967 " />
			<path d="M127.46399858442767,38.44702962134004 L128.12469943388388,38.06323436850015 " />
			<path d="M80.30729193161747,30.947039012126755 L80.96799278107369,30.56324375928686 " />
			<path d="M91.0029997488147,47.55375509746936 L91.66370059827092,47.16995984462947 " />
			<path d="M78.01761894030294,44.25452779980984 L78.67831978975916,43.87073254696995 " />
			<path d="M11.635461081019898,41.13319852298873 L12.29616193047611,40.74940327014883 " />
			<path d="M38.30653858603263,56.70931297466623 L38.96723943548884,56.32551772182634 " />
			<path d="M11.635461081019898,54.81142146216963 L12.29616193047611,54.42762620932974 " />
			<path d="M43.101291843454185,43.37228065705153 L43.7619926929104,42.98848540421164 " />
			<path d="M56.286993081887445,57.98878704061278 L56.94769393134366,57.60499178777288 " />
			<path d="M43.101291843454185,57.05050359623244 L43.7619926929104,56.66670834339254 " />
			<path d="M61.68148611181115,44.12438874640844 L62.34218696126736,43.74059349356855 " />
			<path d="M73.66780219107576,59.79563379956588 L74.32850304053198,59.41183854672598 " />
			<path d="M60.532276526726776,57.66878512723455 L61.19297737618299,57.284989874394654 " />
			<path d="M80.30729193161747,49.5991612019189 L80.96799278107369,49.21536594907901 " />
			<path d="M91.0029997488147,66.2058772872615 L91.66370059827092,65.8220820344216 " />
			<path d="M78.01761894030294,62.90664998960198 L78.67831978975916,62.522854736762085 " />
			<path d="M98.28779362039009,36.8895469837298 L98.94849446984631,36.505751730889905 " />
			<path d="M108.98350143758734,53.49626306907241 L109.64420228704356,53.11246781623252 " />
			<path d="M95.99812062907557,50.19703577141289 L96.65882147853179,49.813240518573 " />
			<path d="M116.26829530916272,42.832054955332836 L116.92899615861894,42.44825970249294 " />
			<path d="M126.96400312635996,59.438771040675455 L127.62470397581617,59.05497578783556 " />
			<path d="M113.9786223178482,56.139543743015935 L114.63932316730443,55.75574849017604 " />
			<path d="M134.24879699793536,48.774562926935886 L134.90949784739155,48.39076767409599 " />
			<path d="M144.9445048151326,65.38127901227848 L145.6052056645888,64.99748375943858 " />
			<path d="M131.95912400662084,62.08205171461896 L132.61982485607703,61.69825646177907 " />
			<path d="M212.87138160609769,24.10326478035624 L213.53208245555388,23.719469527516345 " />
			<path d="M228.14643540592397,36.285446311980714 L228.80713625538016,35.90165105914082 " />
			<path d="M215.1610545974122,37.736615988542724 L215.8217554468684,37.35282073570283 " />
			<path d="M231.3470425700668,20.085538785526303 L232.007743419523,19.701743532686407 " />
			<path d="M245.63177781950014,33.53606606022459 L246.29247866895633,33.152270807384696 " />
			<path d="M232.49625215515115,33.793488747358005 L233.15695300460735,33.40969349451811 " />
			<path d="M194.89087991732504,27.486817903649268 L195.55158076678123,27.103022650809372 " />
			<path d="M210.16593371715132,39.66899943527373 L210.8266345666075,39.28520418243384 " />
			<path d="M197.18055290863956,41.12016911183574 L197.84125375809575,40.73637385899585 " />
			<path d="M176.91037822855242,30.870371026942294 L177.5710790780086,30.4865757741024 " />
			<path d="M192.1854320283787,43.05255255856677 L192.8461328778349,42.66875730572687 " />
			<path d="M179.20005121986696,44.50372223512877 L179.86075206932315,44.119926982288874 " />
			<path d="M240.3372934144531,39.37739968739594 L240.99799426390928,38.99360443455605 " />
			<path d="M254.62202866388645,52.82792696209424 L255.28272951334264,52.44413170925434 " />
			<path d="M241.48650299953744,53.08534964922765 L242.14720384899363,52.701554396387756 " />
			<path d="M249.87706126433946,20.782026655249837 L250.53776211379565,20.39823140240994 " />
			<path d="M263.0627625027728,35.398533038811074 L263.72346335222903,35.01473778597118 " />
			<path d="M249.87706126433946,34.460249594430735 L250.53776211379565,34.07645434159084 " />
			<path d="M267.85756295311205,22.061504079404838 L268.5182638025683,21.677708826564942 " />
			<path d="M281.04326419154535,36.67801046296608 L281.7039650410016,36.29421521012618 " />
			<path d="M267.85756295311205,35.73972701858574 L268.5182638025683,35.355931765745844 " />
			<path d="M285.8380646418847,23.340981503559846 L286.498765491341,22.95718625071995 " />
			<path d="M299.02376588031797,37.95748788712109 L299.6844667297742,37.573692634281194 " />
			<path d="M285.8380646418847,37.019204442740744 L286.498765491341,36.63540918990085 " />
			<path d="M303.81856633065735,24.620458927714854 L304.4792671801136,24.236663674874958 " />
			<path d="M334.9847692578632,40.5164427354311 L335.64547010731945,40.1326474825912 " />
			<path d="M303.81856633065735,38.298681866895755 L304.4792671801136,37.91488661405586 " />
			<path d="M258.86731210872574,40.07388755711948 L259.528012958182,39.69009230427958 " />
			<path d="M272.05301334715904,54.690393940680714 L272.7137141966153,54.30659868784082 " />
			<path d="M258.86731210872574,53.752110496300375 L259.528012958182,53.36831524346048 " />
			<path d="M276.8478137974984,41.35336498127449 L277.50851464695467,40.96956972843459 " />
			<path d="M290.0335150359317,55.969871364835726 L290.69421588538796,55.58607611199583 " />
			<path d="M276.8478137974984,55.03158792045539 L277.50851464695467,54.64779266761549 " />
			<path d="M294.82831548627104,42.63284240542949 L295.4890163357273,42.2490471525896 " />
			<path d="M308.01401672470433,57.24934878899073 L308.6747175741606,56.865553536150834 " />
			<path d="M294.82831548627104,56.31106534461039 L295.4890163357273,55.927270091770495 " />
			<path d="M312.8088171750437,43.9123198295845 L313.46951802449996,43.5285245767446 " />
			<path d="M334.98476925786326,59.16856492522324 L335.6454701073195,58.78476967238334 " />
			<path d="M312.8088171750437,57.590542768765395 L313.46951802449996,57.2067475159255 " />
			<path d="M221.861632450484,43.395125682225874 L222.5223332999402,43.01133042938598 " />
			<path d="M237.13668625031028,55.577307213850354 L237.79738709976647,55.19351196101046 " />
			<path d="M224.15130544179854,57.02847689041236 L224.81200629125473,56.64468163757246 " />
			<path d="M203.88113076171138,46.77867880551891 L204.54183161116757,46.39488355267901 " />
			<path d="M219.15618456153766,58.96086033714338 L219.81688541099385,58.577065084303484 " />
			<path d="M206.1708037530259,60.41203001370539 L206.83150460248208,60.028234760865494 " />
			<path d="M167.9201273841661,53.54578505210496 L168.5808282336223,53.161989799265065 " />
			<path d="M183.1951811839924,65.72796658372943 L183.85588203344858,65.34417133088952 " />
			<path d="M170.20980037548063,67.17913626029144 L170.87050122493682,66.79534100745154 " />
			<path d="M185.90062907293876,50.162231928811934 L186.56132992239495,49.77843667597204 " />
			<path d="M201.17568287276504,62.344413460436414 L201.83638372222123,61.96061820759652 " />
			<path d="M188.19030206425327,63.795583136998424 L188.85100291370946,63.41178788415853 " />
			<path d="M226.35675787267715,62.36711722805677 L227.01745872213334,61.983321975216874 " />
			<path d="M241.6318116725034,74.54929875968124 L242.2925125219596,74.16550350684133 " />
			<path d="M228.64643086399167,76.00046843624325 L229.30713171344786,75.61667318340335 " />
			<path d="M244.83241883664624,58.34939123322683 L245.49311968610243,57.96559598038694 " />
			<path d="M259.1171540860796,71.79991850792511 L259.77785493553586,71.41612325508521 " />
			<path d="M245.9816284217306,72.05734119505854 L246.64232927118678,71.67354594221864 " />
			<path d="M263.3624375309189,59.04587910295036 L264.02313838037514,58.66208385011046 " />
			<path d="M276.5481387693522,73.66238548651161 L277.20883961880844,73.27859023367171 " />
			<path d="M263.3624375309189,72.72410204213126 L264.02313838037514,72.34030678929136 " />
			<path d="M281.3429392196916,60.32535652710537 L282.0036400691478,59.941561274265474 " />
			<path d="M294.52864045812487,74.94186291066661 L295.1893413075811,74.55806765782671 " />
			<path d="M281.3429392196916,74.00357946628627 L282.0036400691478,73.61978421344637 " />
			<path d="M299.323488101382,61.604837309468834 L299.98418895083825,61.22104205662894 " />
			<path d="M334.98481645078107,77.82069047322383 L335.6455173002373,77.43689522038393 " />
			<path d="M299.323488101382,75.28306024864975 L299.98418895083825,74.89926499580984 " />
			<path d="M2.645210236633582,59.14558200070337 L3.3059110860897944,58.761786747863475 " />
			<path d="M38.30653858603263,75.36143516445837 L38.96723943548884,74.97763991161847 " />
			<path d="M2.645210236633582,72.82380493988428 L3.3059110860897944,72.44000968704438 " />
			<path d="M43.101291843454185,62.02440284684368 L43.7619926929104,61.64060759400378 " />
			<path d="M56.286993081887445,76.64090923040492 L56.94769393134366,76.25711397756501 " />
			<path d="M43.101291843454185,75.70262578602458 L43.7619926929104,75.31883053318468 " />
			<path d="M61.68148611181115,62.77651093620059 L62.34218696126736,62.39271568336069 " />
			<path d="M73.66780219107576,78.44775598935801 L74.32850304053198,78.06396073651811 " />
			<path d="M60.532276526726776,76.32090731702668 L61.19297737618299,75.93711206418678 " />
			<path d="M80.30729193161747,68.25128339171103 L80.96799278107369,67.86748813887112 " />
			<path d="M91.0029997488147,84.85799947705365 L91.66370059827092,84.47420422421375 " />
			<path d="M78.01761894030294,81.55877217939413 L78.67831978975916,81.17497692655422 " />
			<path d="M98.28779362039009,55.54166917352193 L98.94849446984631,55.157873920682036 " />
			<path d="M108.98350143758734,72.14838525886455 L109.64420228704356,71.76459000602465 " />
			<path d="M95.99812062907557,68.84915796120502 L96.65882147853179,68.46536270836512 " />
			<path d="M116.26829530916272,61.484177145124974 L116.92899615861894,61.10038189228508 " />
			<path d="M126.96400312635996,78.09089323046759 L127.62470397581617,77.70709797762768 " />
			<path d="M113.9786223178482,74.79166593280806 L114.63932316730443,74.40787067996816 " />
			<path d="M134.24879699793536,67.42668511672801 L134.90949784739155,67.0428898638881 " />
			<path d="M144.9445048151326,84.03340120207064 L145.6052056645888,83.64960594923073 " />
			<path d="M131.95912400662084,80.73417390441112 L132.61982485607703,80.35037865157122 " />
			<path d="M98.28779362039009,74.19379136331406 L98.94849446984631,73.80999611047416 " />
			<path d="M108.98350143758734,90.80050744865669 L109.64420228704356,90.41671219581679 " />
			<path d="M95.99812062907557,87.50128015099715 L96.65882147853179,87.11748489815724 " />
			<path d="M116.26829530916272,80.13629933491711 L116.92899615861894,79.75250408207721 " />
			<path d="M126.96400312635996,96.74301542025972 L127.62470397581617,96.35922016741982 " />
			<path d="M113.9786223178482,93.4437881226002 L114.63932316730443,93.0599928697603 " />
			<path d="M2.6452102366335803,77.79770419049551 L3.3059110860897927,77.4139089376556 " />
			<path d="M20.32603689726,92.73407993009549 L20.986737746716212,92.35028467725559 " />
			<path d="M2.6452102366335803,91.4759271296764 L3.3059110860897927,91.0921318768365 " />
			<path d="M25.120837347599366,79.39705097068926 L25.78153819705558,79.01325571784936 " />
			<path d="M42.80166400822579,94.33342671028925 L43.462364857682005,93.94963145744934 " />
			<path d="M25.120837347599366,93.07527390987016 L25.78153819705558,92.69147865703026 " />
			<path d="M47.59646445856516,80.99639775088302 L48.25716530802137,80.61260249804312 " />
			<path d="M65.27729111919159,95.93277349048302 L65.93799196864781,95.54897823764311 " />
			<path d="M47.59646445856516,94.67462069006392 L48.25716530802137,94.29082543722402 " />
			<path d="M76.47488722429958,87.22694869955399 L77.1355880737558,86.84315344671408 " />
			<path d="M121.80615698929154,114.43185577992355 L122.46685783874776,114.04806052708365 " />
			<path d="M73.73342578519909,100.41118955242845 L74.39412663465531,100.02739429958855 " />
			<path d="M130.4396761041428,99.34348764514232 L131.10037695359898,98.95969239230241 " />
			<path d="M139.76337486453883,116.75928762585131 L140.42407571399502,116.37549237301141 " />
			<path d="M127.02696550060436,112.31279081472667 L127.68766635006058,111.92899556188677 " />
			<path d="M190.39575449513188,69.13422347464282 L191.05645534458807,68.75042822180292 " />
			<path d="M205.67080829495816,81.31640500626729 L206.33150914441435,80.93260975342739 " />
			<path d="M192.68542748644643,82.7675746828293 L193.34612833590262,82.3837794299894 " />
			<path d="M172.41525280635926,72.51777659793585 L173.07595365581545,72.13398134509595 " />
			<path d="M187.69030660618554,84.69995812956033 L188.35100745564174,84.31616287672043 " />
			<path d="M174.70492579767378,86.15112780612235 L175.36562664712997,85.76733255328244 " />
			<path d="M208.37625618390453,65.7506703513498 L209.03695703336072,65.3668750985099 " />
			<path d="M223.6513099837308,77.93285188297426 L224.312010833187,77.54905663013436 " />
			<path d="M210.66592917521908,79.38402155953628 L211.32663002467527,79.00022630669638 " />
			<path d="M194.89087991732504,88.10621502047371 L195.55158076678123,87.72241976763381 " />
			<path d="M210.16593371715132,100.28839655209818 L210.8266345666075,99.90460129925827 " />
			<path d="M197.18055290863956,101.7395662286602 L197.84125375809575,101.35577097582029 " />
			<path d="M230.85188329487033,81.33910877388766 L231.51258414432652,80.95531352104776 " />
			<path d="M246.12693709469661,93.52129030551214 L246.7876379441528,93.13749505267224 " />
			<path d="M233.14155628618485,94.97245998207414 L233.80225713564104,94.58866472923424 " />
			<path d="M212.87138160609769,84.72266189718067 L213.53208245555388,84.33886664434077 " />
			<path d="M228.14643540592397,96.90484342880515 L228.80713625538016,96.52104817596525 " />
			<path d="M215.1610545974122,98.35601310536717 L215.8217554468684,97.97221785252727 " />
			<path d="M249.32754425883942,77.32138277905773 L249.98824510829562,76.93758752621783 " />
			<path d="M263.61227950827276,90.77191005375602 L264.272980357729,90.38811480091611 " />
			<path d="M250.4767538439238,91.02933274088943 L251.13745469338,90.64553748804953 " />
			<path d="M267.85756295311205,78.01787064878125 L268.5182638025683,77.63407539594135 " />
			<path d="M281.04326419154535,92.6343770323425 L281.7039650410016,92.2505817795026 " />
			<path d="M267.85756295311205,91.69609358796217 L268.5182638025683,91.31229833512226 " />
			<path d="M288.0856273529813,79.45728275095564 L288.74632820243755,79.07348749811574 " />
			<path d="M314.75670485799407,95.03339720263314 L315.4174057074503,94.64960194979324 " />
			<path d="M288.0856273529813,93.13550569013654 L288.74632820243755,92.75171043729664 " />
			<path d="M321.79906801942997,81.85630292124628 L322.4597688688862,81.47250766840638 " />
			<path d="M334.98476925786326,96.47280930480753 L335.6454701073195,96.08901405196762 " />
			<path d="M321.79906801942997,95.53452586042718 L322.4597688688862,95.15073060758728 " />
			<path d="M199.5774263499537,107.04686253537702 L200.2381271994099,106.66306728253711 " />
			<path d="M250.43064150645426,112.52462588227061 L251.09134235591046,112.14083062943071 " />
			<path d="M202.54356374580246,120.58558135686036 L203.20426459525865,120.20178610402046 " />
			<path d="M180.59288976012783,107.20096627879654 L181.25359060958402,106.81717102595664 " />
			<path d="M197.4931713411896,116.5786735371271 L198.15387219064579,116.1948782842872 " />
			<path d="M185.10266518754622,120.37520327833643 L185.7633660370024,119.99140802549653 " />
			<path d="M258.86731210872574,96.03025412649589 L259.528012958182,95.64645887365599 " />
			<path d="M272.05301334715904,110.64676051005712 L272.7137141966153,110.26296525721722 " />
			<path d="M258.86731210872574,109.70847706567679 L259.528012958182,109.32468181283689 " />
			<path d="M276.8478137974984,97.3097315506509 L277.50851464695467,96.92593629781099 " />
			<path d="M290.0335150359317,111.92623793421212 L290.69421588538796,111.54244268137222 " />
			<path d="M276.8478137974984,110.9879544898318 L277.50851464695467,110.60415923699189 " />
			<path d="M294.82831548627104,98.5892089748059 L295.4890163357273,98.205413721966 " />
			<path d="M308.01401672470433,113.20571535836714 L308.6747175741606,112.82192010552724 " />
			<path d="M294.82831548627104,112.2674319139868 L295.4890163357273,111.8836366611469 " />
			<path d="M312.80881717504366,99.8686863989609 L313.4695180244999,99.484891146121 " />
			<path d="M325.99451841347695,114.48519278252213 L326.6552192629332,114.10139752968223 " />
			<path d="M312.80881717504366,113.5469093381418 L313.4695180244999,113.1631140853019 " />

       </g>

       <!-- solid lines -->
       <g  stroke="rgb(0,0,0)" fill="none">
			<path d="M0.0,0.0 L0.6607008494562123,-0.38379525283989696 " />
			<path d="M0.6607008494562123,-0.3837952528398969 L0.6607008494562121,111.7247606910551 " />
			<path d="M-2.293398198602666e-16,112.108555943895 L0.6607008494562121,111.7247606910551 " />
			<path d="M0.0,0.0 L-2.293398198602666e-16,112.108555943895 " />
			<path d="M0.6607008494562123,-0.3837952528398969 L339.03392160667346,23.694559422203138 " />
			<path d="M0.6607008494562121,111.7247606910551 L339.03392160667346,135.80311536609813 " />
			<path d="M339.03392160667346,23.69455942220314 L339.03392160667346,135.80311536609815 " />
			<path d="M16.491565131605242,3.7437002646589352 L3.3058638931719755,2.805416820278597 " />
			<path d="M16.491565131605242,3.7437002646589352 L16.491565131605242,17.42192320383984 " />
			<path d="M3.3058638931719755,2.805416820278597 L3.3058638931719755,16.4836397594595 " />
			<path d="M16.491565131605242,17.42192320383984 L3.3058638931719755,16.4836397594595 " />
			<path d="M34.472066820377876,5.023177688813941 L21.286365581944608,4.084894244433603 " />
			<path d="M34.47206682037787,5.023177688813941 L34.47206682037787,18.701400627994843 " />
			<path d="M21.286365581944608,4.084894244433603 L21.286365581944608,17.763117183614504 " />
			<path d="M34.472066820377876,18.701400627994843 L21.286365581944608,17.763117183614504 " />
			<path d="M52.45256850915051,6.3026551129689485 L39.26686727071724,5.3643716685886105 " />
			<path d="M52.45256850915051,6.3026551129689485 L52.45256850915051,19.98087805214985 " />
			<path d="M39.26686727071724,5.3643716685886105 L39.26686727071724,19.042594607769512 " />
			<path d="M52.45256850915051,19.98087805214985 L39.26686727071724,19.042594607769516 " />
			<path d="M70.43307019792314,7.582132537123956 L57.247368959489876,6.643849092743617 " />
			<path d="M70.43307019792314,7.582132537123955 L70.43307019792314,21.260355476304856 " />
			<path d="M57.247368959489876,6.643849092743617 L57.247368959489876,20.32207203192452 " />
			<path d="M70.43307019792314,21.26035547630486 L57.247368959489876,20.32207203192452 " />
			<path d="M88.96308889219581,9.52280585443185 L75.82756322784682,7.395957182100528 " />
			<path d="M88.9630888921958,9.522805854431846 L87.81387930711143,23.067202235257955 " />
			<path d="M75.82756322784684,7.395957182100528 L74.67835364276247,20.940353562926635 " />
			<path d="M87.81387930711143,23.067202235257955 L74.67835364276246,20.940353562926635 " />
			<path d="M38.96719224257104,23.995169234644834 L16.791240159751446,22.417147078186993 " />
			<path d="M38.96719224257103,23.995169234644834 L38.96719224257103,37.67339217382573 " />
			<path d="M16.791240159751446,22.417147078186993 L16.791240159751446,36.0953700173679 " />
			<path d="M38.96719224257104,37.67339217382574 L16.791240159751446,36.0953700173679 " />
			<path d="M56.947693931343665,25.274646658799842 L43.7619926929104,24.336363214419507 " />
			<path d="M56.94769393134366,25.27464665879984 L56.94769393134366,38.952869597980744 " />
			<path d="M43.7619926929104,24.336363214419503 L43.7619926929104,38.014586153600405 " />
			<path d="M56.947693931343665,38.952869597980744 L43.7619926929104,38.014586153600405 " />
			<path d="M75.47771262561635,27.21531997610774 L62.34218696126736,25.088471303776416 " />
			<path d="M75.47771262561635,27.21531997610774 L74.32850304053198,40.75971635693385 " />
			<path d="M62.34218696126735,25.088471303776412 L61.19297737618298,38.63286768460252 " />
			<path d="M74.32850304053198,40.759716356933836 L61.192977376182995,38.632867684602516 " />
			<path d="M107.43874985616492,16.169956935270505 L94.45336904765315,12.87072963761098 " />
			<path d="M107.43874985616492,16.169956935270502 L105.14907686485039,29.477445722953593 " />
			<path d="M94.45336904765315,12.870729637610978 L92.16369605633862,26.17821842529407 " />
			<path d="M105.1490768648504,29.47744572295359 L92.16369605633864,26.178218425294066 " />
			<path d="M125.41925154493757,22.112464906873548 L112.4338707364258,18.81323760921402 " />
			<path d="M125.41925154493754,22.112464906873544 L123.12957855362302,35.41995369455663 " />
			<path d="M112.4338707364258,18.81323760921402 L110.14419774511128,32.12072639689711 " />
			<path d="M123.12957855362303,35.41995369455663 L110.14419774511127,32.12072639689711 " />
			<path d="M143.3997532337102,28.054972878476587 L130.41437242519842,24.755745580817063 " />
			<path d="M143.39975323371016,28.054972878476583 L141.11008024239564,41.362461666159675 " />
			<path d="M130.41437242519842,24.75574558081706 L128.1246994338839,38.063234368500154 " />
			<path d="M141.11008024239567,41.36246166615968 L128.1246994338839,38.063234368500154 " />
			<path d="M93.95337358958544,33.86247105694638 L80.96799278107369,30.56324375928686 " />
			<path d="M93.95337358958544,33.86247105694638 L91.6637005982709,47.16995984462948 " />
			<path d="M80.9679927810737,30.563243759286863 L78.67831978975917,43.870732546969954 " />
			<path d="M91.66370059827092,47.16995984462948 L78.67831978975916,43.870732546969954 " />
			<path d="M38.96723943548886,42.64729478264543 L12.29616193047611,40.74940327014884 " />
			<path d="M38.96723943548884,42.64729478264543 L38.96723943548884,56.32551772182633 " />
			<path d="M12.29616193047611,40.74940327014883 L12.29616193047611,54.427626209329745 " />
			<path d="M38.96723943548886,56.32551772182634 L12.29616193047611,54.427626209329745 " />
			<path d="M56.947693931343665,43.926768848591976 L43.7619926929104,42.98848540421164 " />
			<path d="M56.94769393134366,43.926768848591976 L56.94769393134366,57.604991787772875 " />
			<path d="M43.7619926929104,42.98848540421163 L43.7619926929104,56.66670834339254 " />
			<path d="M56.947693931343665,57.60499178777288 L43.7619926929104,56.66670834339254 " />
			<path d="M75.47771262561635,45.867442165899874 L62.342186961267366,43.740593493568554 " />
			<path d="M75.47771262561633,45.867442165899874 L74.32850304053197,59.41183854672599 " />
			<path d="M62.34218696126735,43.74059349356855 L61.19297737618298,57.28498987439466 " />
			<path d="M74.32850304053197,59.411838546725974 L61.192977376182995,57.284989874394654 " />
			<path d="M93.95337358958545,52.51459324673854 L80.96799278107369,49.215365949079015 " />
			<path d="M93.95337358958544,52.51459324673853 L91.66370059827092,65.82208203442163 " />
			<path d="M80.96799278107368,49.21536594907901 L78.67831978975916,62.5228547367621 " />
			<path d="M91.66370059827092,65.82208203442161 L78.67831978975917,62.52285473676209 " />
			<path d="M111.93387527835807,39.80497902854943 L98.94849446984632,36.505751730889905 " />
			<path d="M111.93387527835806,39.804979028549425 L109.64420228704354,53.112467816232524 " />
			<path d="M98.9484944698463,36.505751730889905 L96.65882147853178,49.813240518573 " />
			<path d="M109.64420228704356,53.112467816232524 L96.65882147853179,49.813240518573004 " />
			<path d="M129.9143769671307,45.747487000152475 L116.92899615861894,42.44825970249295 " />
			<path d="M129.9143769671307,45.74748700015247 L127.62470397581616,59.05497578783556 " />
			<path d="M116.92899615861896,42.44825970249295 L114.63932316730443,55.75574849017604 " />
			<path d="M127.62470397581617,59.05497578783556 L114.63932316730443,55.75574849017604 " />
			<path d="M147.89487865590337,51.68999497175552 L134.90949784739158,48.39076767409599 " />
			<path d="M147.89487865590334,51.68999497175551 L145.60520566458882,64.9974837594386 " />
			<path d="M134.90949784739158,48.39076767409599 L132.61982485607706,61.69825646177908 " />
			<path d="M145.60520566458885,64.99748375943861 L132.61982485607706,61.698256461779074 " />
			<path d="M226.5174632640657,22.268299850954335 L213.53208245555393,23.719469527516345 " />
			<path d="M226.51746326406567,22.26829985095433 L228.8071362553802,35.90165105914082 " />
			<path d="M213.53208245555393,23.719469527516342 L215.82175544686845,37.35282073570283 " />
			<path d="M228.80713625538021,35.90165105914082 L215.82175544686845,37.35282073570283 " />
			<path d="M245.143269083872,19.444320845552994 L232.00774341952302,19.701743532686407 " />
			<path d="M245.14326908387204,19.444320845552994 L246.2924786689564,33.1522708073847 " />
			<path d="M232.00774341952302,19.701743532686407 L233.15695300460737,33.40969349451811 " />
			<path d="M246.29247866895636,33.152270807384696 L233.15695300460737,33.40969349451811 " />
			<path d="M208.53696157529302,25.65185297424736 L195.55158076678129,27.103022650809372 " />
			<path d="M208.53696157529305,25.651852974247358 L210.82663456660757,39.28520418243384 " />
			<path d="M195.55158076678126,27.103022650809372 L197.84125375809577,40.736373858995854 " />
			<path d="M210.82663456660757,39.28520418243384 L197.8412537580958,40.736373858995854 " />
			<path d="M190.55645988652043,29.035406097540385 L177.57107907800867,30.486575774102395 " />
			<path d="M190.5564598865204,29.03540609754039 L192.84613287783495,42.66875730572687 " />
			<path d="M177.57107907800864,30.4865757741024 L179.86075206932318,44.11992698228888 " />
			<path d="M192.84613287783495,42.66875730572687 L179.86075206932318,44.11992698228888 " />
			<path d="M254.13351992825832,38.736181747422634 L240.9979942639093,38.99360443455605 " />
			<path d="M254.1335199282583,38.73618174742264 L255.28272951334264,52.44413170925434 " />
			<path d="M240.9979942639093,38.99360443455605 L242.14720384899366,52.70155439638776 " />
			<path d="M255.28272951334267,52.444131709254336 L242.14720384899366,52.70155439638775 " />
			<path d="M263.723463352229,21.336514846790276 L250.53776211379568,20.398231402409937 " />
			<path d="M263.723463352229,21.33651484679028 L263.723463352229,35.01473778597118 " />
			<path d="M250.53776211379568,20.39823140240994 L250.53776211379568,34.07645434159084 " />
			<path d="M263.723463352229,35.01473778597118 L250.53776211379568,34.07645434159084 " />
			<path d="M281.7039650410016,22.61599227094528 L268.5182638025683,21.67770882656494 " />
			<path d="M281.70396504100154,22.615992270945284 L281.70396504100154,36.29421521012618 " />
			<path d="M268.51826380256824,21.677708826564945 L268.51826380256824,35.355931765745844 " />
			<path d="M281.7039650410016,36.29421521012618 L268.5182638025683,35.355931765745844 " />
			<path d="M299.6844667297742,23.89546969510029 L286.4987654913409,22.957186250719946 " />
			<path d="M299.68446672977416,23.895469695100292 L299.68446672977416,37.573692634281194 " />
			<path d="M286.4987654913409,22.957186250719953 L286.4987654913409,36.635409189900855 " />
			<path d="M299.6844667297742,37.57369263428119 L286.4987654913409,36.63540918990085 " />
			<path d="M335.64547010731945,26.4544245434103 L304.4792671801136,24.236663674874954 " />
			<path d="M335.6454701073194,26.4544245434103 L335.6454701073194,40.1326474825912 " />
			<path d="M304.47926718011354,24.236663674874958 L304.47926718011354,37.91488661405586 " />
			<path d="M335.64547010731945,40.1326474825912 L304.4792671801136,37.91488661405586 " />
			<path d="M272.7137141966153,40.62837574865992 L259.528012958182,39.69009230427958 " />
			<path d="M272.71371419661523,40.62837574865992 L272.71371419661523,54.306598687840825 " />
			<path d="M259.52801295818193,39.69009230427958 L259.52801295818193,53.368315243460486 " />
			<path d="M272.7137141966153,54.306598687840825 L259.528012958182,53.36831524346048 " />
			<path d="M290.69421588538796,41.90785317281493 L277.5085146469546,40.96956972843459 " />
			<path d="M290.6942158853879,41.907853172814924 L290.6942158853879,55.58607611199583 " />
			<path d="M277.5085146469546,40.96956972843459 L277.5085146469546,54.64779266761549 " />
			<path d="M290.69421588538796,55.58607611199583 L277.5085146469546,54.64779266761549 " />
			<path d="M308.6747175741606,43.187330596969936 L295.4890163357273,42.2490471525896 " />
			<path d="M308.6747175741605,43.18733059696994 L308.6747175741605,56.86555353615084 " />
			<path d="M295.48901633572723,42.2490471525896 L295.48901633572723,55.927270091770495 " />
			<path d="M308.6747175741606,56.865553536150834 L295.4890163357273,55.927270091770495 " />
			<path d="M335.6454701073195,45.10654673320244 L313.4695180244999,43.5285245767446 " />
			<path d="M335.64547010731945,45.10654673320245 L335.64547010731945,58.78476967238335 " />
			<path d="M313.4695180244999,43.5285245767446 L313.4695180244999,57.20674751592551 " />
			<path d="M335.6454701073195,58.78476967238334 L313.4695180244999,57.2067475159255 " />
			<path d="M235.507714108452,41.56016075282397 L222.52233329994024,43.01133042938598 " />
			<path d="M235.50771410845198,41.560160752823975 L237.7973870997665,55.19351196101045 " />
			<path d="M222.52233329994027,43.011330429385985 L224.8120062912548,56.64468163757247 " />
			<path d="M237.79738709976652,55.193511961010444 L224.81200629125476,56.644681637572454 " />
			<path d="M217.52721241967936,44.94371387611701 L204.5418316111676,46.39488355267902 " />
			<path d="M217.52721241967936,44.94371387611701 L219.8168854109939,58.577065084303484 " />
			<path d="M204.54183161116757,46.39488355267902 L206.8315046024821,60.02823476086551 " />
			<path d="M219.81688541099388,58.57706508430348 L206.8315046024821,60.02823476086549 " />
			<path d="M181.5662090421341,51.71082012270306 L168.58082823362233,53.16198979926507 " />
			<path d="M181.5662090421341,51.71082012270306 L183.8558820334486,65.34417133088955 " />
			<path d="M168.58082823362233,53.161989799265065 L170.87050122493685,66.79534100745154 " />
			<path d="M183.8558820334486,65.34417133088952 L170.87050122493685,66.79534100745154 " />
			<path d="M199.54671073090674,48.327266999410035 L186.56132992239498,49.778436675972046 " />
			<path d="M199.54671073090674,48.32726699941003 L201.83638372222126,61.96061820759652 " />
			<path d="M186.56132992239498,49.778436675972046 L188.8510029137095,63.411787884158535 " />
			<path d="M201.83638372222126,61.96061820759651 L188.8510029137095,63.41178788415852 " />
			<path d="M240.00283953064516,60.532152298654864 L227.0174587221334,61.983321975216874 " />
			<path d="M240.00283953064513,60.53215229865487 L242.29251252195965,74.16550350684135 " />
			<path d="M227.01745872213337,61.983321975216874 L229.3071317134479,75.61667318340335 " />
			<path d="M242.29251252195968,74.16550350684135 L229.30713171344792,75.61667318340335 " />
			<path d="M258.62864535045145,57.70817329325352 L245.49311968610246,57.96559598038694 " />
			<path d="M258.62864535045145,57.708173293253516 L259.7778549355358,71.41612325508522 " />
			<path d="M245.49311968610246,57.96559598038694 L246.6423292711868,71.67354594221865 " />
			<path d="M259.7778549355358,71.41612325508522 L246.6423292711868,71.67354594221864 " />
			<path d="M277.20883961880844,59.60036729449081 L264.02313838037514,58.66208385011046 " />
			<path d="M277.2088396188084,59.6003672944908 L277.2088396188084,73.27859023367171 " />
			<path d="M264.0231383803751,58.66208385011046 L264.0231383803751,72.34030678929136 " />
			<path d="M277.20883961880844,73.27859023367171 L264.02313838037514,72.34030678929138 " />
			<path d="M295.18934130758106,60.87984471864581 L282.00364006914776,59.941561274265474 " />
			<path d="M295.18934130758106,60.87984471864581 L295.18934130758106,74.55806765782671 " />
			<path d="M282.00364006914776,59.941561274265474 L282.00364006914776,73.61978421344638 " />
			<path d="M295.18934130758106,74.55806765782671 L282.00364006914776,73.61978421344638 " />
			<path d="M335.6455173002373,63.75867228120304 L299.9841889508382,61.22104205662894 " />
			<path d="M335.64551730023726,63.75867228120304 L335.64551730023726,77.43689522038395 " />
			<path d="M299.9841889508382,61.22104205662894 L299.9841889508382,74.89926499580984 " />
			<path d="M335.6455173002373,77.43689522038393 L299.9841889508382,74.89926499580983 " />
			<path d="M38.96723943548884,61.29941697243758 L3.3059110860897944,58.76178674786348 " />
			<path d="M38.96723943548884,61.29941697243757 L38.96723943548884,74.97763991161847 " />
			<path d="M3.3059110860897944,58.76178674786348 L3.3059110860897944,72.44000968704438 " />
			<path d="M38.96723943548884,74.97763991161847 L3.3059110860897944,72.44000968704437 " />
			<path d="M56.947693931343665,62.57889103838412 L43.7619926929104,61.64060759400378 " />
			<path d="M56.94769393134366,62.578891038384114 L56.94769393134366,76.25711397756501 " />
			<path d="M43.7619926929104,61.64060759400378 L43.7619926929104,75.31883053318468 " />
			<path d="M56.947693931343665,76.25711397756501 L43.7619926929104,75.31883053318468 " />
			<path d="M75.47771262561635,64.51956435569201 L62.342186961267366,62.39271568336069 " />
			<path d="M75.47771262561636,64.51956435569201 L74.32850304053198,78.06396073651813 " />
			<path d="M62.34218696126735,62.39271568336069 L61.19297737618299,75.9371120641868 " />
			<path d="M74.32850304053197,78.06396073651813 L61.19297737618299,75.9371120641868 " />
			<path d="M93.95337358958545,71.16671543653067 L80.96799278107369,67.86748813887114 " />
			<path d="M93.95337358958545,71.16671543653068 L91.66370059827094,84.47420422421376 " />
			<path d="M80.96799278107369,67.86748813887115 L78.67831978975917,81.17497692655424 " />
			<path d="M91.66370059827092,84.47420422421375 L78.67831978975916,81.17497692655422 " />
			<path d="M111.93387527835807,58.45710121834156 L98.94849446984631,55.157873920682036 " />
			<path d="M111.93387527835807,58.45710121834156 L109.64420228704356,71.76459000602466 " />
			<path d="M98.94849446984631,55.15787392068204 L96.65882147853179,68.46536270836513 " />
			<path d="M109.64420228704356,71.76459000602466 L96.65882147853179,68.46536270836513 " />
			<path d="M129.9143769671307,64.39960918994461 L116.92899615861894,61.10038189228509 " />
			<path d="M129.9143769671307,64.39960918994461 L127.62470397581617,77.7070979776277 " />
			<path d="M116.92899615861897,61.100381892285085 L114.63932316730444,74.40787067996818 " />
			<path d="M127.62470397581619,77.70709797762771 L114.63932316730443,74.40787067996818 " />
			<path d="M147.89487865590337,70.34211716154765 L134.9094978473916,67.04288986388812 " />
			<path d="M147.89487865590337,70.34211716154765 L145.60520566458882,83.64960594923075 " />
			<path d="M134.9094978473916,67.04288986388812 L132.61982485607706,80.35037865157122 " />
			<path d="M145.60520566458882,83.64960594923075 L132.61982485607706,80.35037865157122 " />
			<path d="M111.93387527835809,77.1092234081337 L98.94849446984631,73.80999611047417 " />
			<path d="M111.93387527835809,77.1092234081337 L109.64420228704356,90.4167121958168 " />
			<path d="M98.94849446984632,73.80999611047417 L96.65882147853179,87.11748489815726 " />
			<path d="M109.64420228704356,90.41671219581679 L96.65882147853179,87.11748489815726 " />
			<path d="M129.91437696713072,83.05173137973675 L116.92899615861894,79.75250408207722 " />
			<path d="M129.91437696713072,83.05173137973675 L127.62470397581619,96.35922016741985 " />
			<path d="M116.92899615861896,79.75250408207722 L114.63932316730443,93.05999286976031 " />
			<path d="M127.62470397581619,96.35922016741982 L114.63932316730441,93.0599928697603 " />
			<path d="M20.986737746716216,78.67206173807469 L3.3059110860897927,77.41390893765559 " />
			<path d="M20.986737746716216,78.67206173807469 L20.986737746716216,92.35028467725559 " />
			<path d="M3.3059110860897927,77.4139089376556 L3.3059110860897927,91.0921318768365 " />
			<path d="M20.986737746716216,92.35028467725559 L3.3059110860897927,91.09213187683649 " />
			<path d="M43.462364857682005,80.27140851826844 L25.781538197055582,79.01325571784936 " />
			<path d="M43.462364857682005,80.27140851826846 L43.462364857682005,93.94963145744936 " />
			<path d="M25.781538197055582,79.01325571784938 L25.781538197055582,92.69147865703027 " />
			<path d="M43.462364857682005,93.94963145744934 L25.781538197055582,92.69147865703026 " />
			<path d="M65.9379919686478,81.87075529846221 L48.25716530802137,80.61260249804313 " />
			<path d="M65.9379919686478,81.87075529846221 L65.9379919686478,95.54897823764311 " />
			<path d="M48.25716530802137,80.61260249804312 L48.25716530802137,94.29082543722402 " />
			<path d="M65.9379919686478,95.54897823764311 L48.25716530802137,94.29082543722403 " />
			<path d="M125.20831927784825,100.86381967420918 L77.1355880737558,86.8431534467141 " />
			<path d="M125.20831927784825,100.86381967420918 L122.46685783874777,114.04806052708366 " />
			<path d="M77.13558807375578,86.84315344671408 L74.39412663465531,100.02739429958856 " />
			<path d="M122.46685783874776,114.04806052708365 L74.39412663465531,100.02739429958856 " />
			<path d="M143.83678631753347,103.40618920342706 L131.100376953599,98.95969239230241 " />
			<path d="M143.83678631753347,103.40618920342705 L140.42407571399505,116.37549237301143 " />
			<path d="M131.100376953599,98.9596923923024 L127.6876663500606,111.92899556188678 " />
			<path d="M140.42407571399505,116.37549237301144 L127.68766635006058,111.9289955618868 " />
			<path d="M204.0418361530999,67.29925854524093 L191.05645534458816,68.75042822180293 " />
			<path d="M204.0418361530999,67.29925854524092 L206.3315091444144,80.9326097534274 " />
			<path d="M191.05645534458816,68.75042822180293 L193.34612833590268,82.38377942998942 " />
			<path d="M206.3315091444144,80.9326097534274 L193.34612833590268,82.3837794299894 " />
			<path d="M186.06133446432725,70.68281166853394 L173.07595365581548,72.13398134509596 " />
			<path d="M186.06133446432725,70.68281166853394 L188.35100745564176,84.31616287672044 " />
			<path d="M173.07595365581548,72.13398134509596 L175.36562664713,85.76733255328244 " />
			<path d="M188.35100745564176,84.31616287672043 L175.36562664713,85.76733255328244 " />
			<path d="M222.02233784187254,63.91570542194789 L209.03695703336075,65.36687509850991 " />
			<path d="M222.0223378418725,63.91570542194789 L224.31201083318703,77.54905663013439 " />
			<path d="M209.03695703336078,65.3668750985099 L211.3266300246753,79.00022630669639 " />
			<path d="M224.3120108331871,77.54905663013437 L211.3266300246753,79.00022630669639 " />
			<path d="M208.53696157529305,86.2712500910718 L195.55158076678129,87.72241976763382 " />
			<path d="M208.53696157529302,86.2712500910718 L210.82663456660754,99.90460129925829 " />
			<path d="M195.55158076678129,87.72241976763381 L197.8412537580958,101.35577097582029 " />
			<path d="M210.82663456660757,99.90460129925827 L197.8412537580958,101.35577097582029 " />
			<path d="M244.49796495283832,79.50414384448575 L231.51258414432655,80.95531352104776 " />
			<path d="M244.49796495283832,79.50414384448577 L246.78763794415283,93.13749505267225 " />
			<path d="M231.51258414432658,80.95531352104777 L233.8022571356411,94.58866472923425 " />
			<path d="M246.78763794415286,93.13749505267225 L233.8022571356411,94.58866472923425 " />
			<path d="M226.51746326406567,82.88769696777877 L213.53208245555393,84.33886664434078 " />
			<path d="M226.5174632640657,82.88769696777878 L228.80713625538021,96.52104817596526 " />
			<path d="M213.5320824555539,84.3388666443408 L215.82175544686842,97.97221785252727 " />
			<path d="M228.8071362553802,96.52104817596526 L215.82175544686845,97.97221785252728 " />
			<path d="M263.12377077264466,76.68016483908441 L249.98824510829567,76.93758752621783 " />
			<path d="M263.1237707726446,76.68016483908441 L264.272980357729,90.38811480091611 " />
			<path d="M249.98824510829564,76.93758752621783 L251.13745469338002,90.64553748804953 " />
			<path d="M264.272980357729,90.38811480091611 L251.13745469338002,90.64553748804953 " />
			<path d="M281.7039650410016,78.57235884032168 L268.5182638025683,77.63407539594135 " />
			<path d="M281.70396504100154,78.5723588403217 L281.70396504100154,92.2505817795026 " />
			<path d="M268.51826380256824,77.63407539594137 L268.51826380256824,91.31229833512226 " />
			<path d="M281.7039650410016,92.2505817795026 L268.5182638025683,91.31229833512226 " />
			<path d="M315.4174057074503,80.97137901061234 L288.74632820243755,79.07348749811574 " />
			<path d="M315.41740570745026,80.97137901061234 L315.41740570745026,94.64960194979324 " />
			<path d="M288.7463282024375,79.07348749811574 L288.7463282024375,92.75171043729665 " />
			<path d="M315.4174057074503,94.64960194979324 L288.74632820243755,92.75171043729664 " />
			<path d="M335.64547010731945,82.41079111278673 L322.4597688688862,81.47250766840638 " />
			<path d="M335.64547010731945,82.41079111278673 L335.64547010731945,96.08901405196762 " />
			<path d="M322.45976886888616,81.47250766840638 L322.45976886888616,95.15073060758729 " />
			<path d="M335.64547010731945,96.08901405196762 L322.4597688688862,95.15073060758728 " />
			<path d="M248.12520496006172,98.60211180794735 L200.2381271994099,106.66306728253711 " />
			<path d="M248.1252049600617,98.60211180794737 L251.09134235591046,112.14083062943071 " />
			<path d="M200.23812719940992,106.66306728253711 L203.20426459525868,120.20178610402046 " />
			<path d="M251.09134235591046,112.14083062943072 L203.20426459525865,120.20178610402048 " />
			<path d="M193.64409676322742,103.02064128474733 L181.25359060958405,106.81717102595664 " />
			<path d="M193.6440967632274,103.02064128474734 L198.1538721906458,116.19487828428723 " />
			<path d="M198.1538721906458,116.1948782842872 L185.76336603700244,119.99140802549651 " />
			<path d="M181.25359060958405,106.81717102595665 L185.76336603700247,119.99140802549655 " />
			<path d="M272.7137141966153,96.58474231803632 L259.528012958182,95.64645887365599 " />
			<path d="M272.71371419661523,96.58474231803632 L272.71371419661523,110.26296525721722 " />
			<path d="M259.52801295818193,95.64645887365599 L259.52801295818193,109.32468181283689 " />
			<path d="M272.7137141966153,110.26296525721722 L259.528012958182,109.32468181283689 " />
			<path d="M290.69421588538796,97.86421974219132 L277.5085146469546,96.92593629781099 " />
			<path d="M290.6942158853879,97.86421974219134 L290.6942158853879,111.54244268137224 " />
			<path d="M277.5085146469546,96.925936297811 L277.5085146469546,110.6041592369919 " />
			<path d="M290.69421588538796,111.54244268137222 L277.5085146469546,110.60415923699189 " />
			<path d="M308.6747175741606,99.14369716634634 L295.4890163357273,98.205413721966 " />
			<path d="M308.6747175741605,99.14369716634634 L308.6747175741605,112.82192010552724 " />
			<path d="M295.48901633572723,98.20541372196601 L295.48901633572723,111.88363666114691 " />
			<path d="M308.6747175741606,112.82192010552724 L295.4890163357273,111.8836366611469 " />
			<path d="M326.6552192629332,100.42317459050135 L313.46951802449985,99.484891146121 " />
			<path d="M326.65521926293314,100.42317459050135 L326.65521926293314,114.10139752968225 " />
			<path d="M313.46951802449985,99.48489114612102 L313.46951802449985,113.16311408530191 " />
			<path d="M326.6552192629332,114.10139752968225 L313.46951802449985,113.1631140853019 " />
			<path d="M-2.293398198602666e-16,112.108555943895 L338.37322075721727,136.18691061893804 " />
			<path d="M338.37322075721727,136.18691061893804 L339.03392160667346,135.80311536609815 " />
			<path d="M15.83086428214903,4.127495517498833 L3.3058638931719755,3.2362269915913817 " />
			<path d="M15.830864282149028,4.127495517498832 L15.830864282149028,17.374908285366953 " />
			<path d="M33.81136597092166,5.406972941653839 L21.286365581944608,4.515704415746388 " />
			<path d="M33.811365970921656,5.406972941653839 L33.811365970921656,18.654385709521954 " />
			<path d="M51.7918676596943,6.686450365808845 L39.26686727071724,5.795181839901395 " />
			<path d="M51.7918676596943,6.686450365808845 L51.7918676596943,19.933863133676965 " />
			<path d="M69.77236934846692,7.965927789963852 L57.247368959489876,7.074659264056401 " />
			<path d="M69.77236934846692,7.965927789963851 L69.77236934846692,21.21334055783197 " />
			<path d="M88.3023880427396,9.906601107271747 L75.78648662021895,7.880079367394575 " />
			<path d="M88.30238804273958,9.906601107271744 L87.19425506528312,22.966875302803807 " />
			<path d="M38.306491393114825,24.37896448748473 L16.791240159751446,22.84795724949978 " />
			<path d="M38.30649139311482,24.37896448748473 L38.30649139311482,37.62637725535285 " />
			<path d="M56.28699308188745,25.658441911639738 L43.7619926929104,24.76717338573229 " />
			<path d="M56.286993081887445,25.658441911639738 L56.286993081887445,38.905854679507854 " />
			<path d="M74.81701177616014,27.599115228947635 L62.30111035363946,25.57259348907046 " />
			<path d="M74.81701177616013,27.599115228947635 L73.70887879870367,40.65938942447969 " />
			<path d="M106.7780490067087,16.5537521881104 L94.36242639384437,13.399284741537654 " />
			<path d="M106.7780490067087,16.553752188110398 L104.57931866920295,29.332685871866808 " />
			<path d="M124.75855069548135,22.496260159713444 L112.34292808261704,19.3417927131407 " />
			<path d="M124.75855069548133,22.49626015971344 L122.55982035797558,35.27519384346986 " />
			<path d="M142.73905238425397,28.438768131316486 L130.32342977138967,25.28430068474374 " />
			<path d="M142.73905238425394,28.43876813131648 L140.5403220467482,41.21770181507289 " />
			<path d="M93.29267274012923,34.24626630978628 L80.87705012726494,31.091798863213537 " />
			<path d="M93.29267274012923,34.24626630978628 L91.09394240262347,47.02519999354271 " />
			<path d="M38.306538586032644,43.03109003548533 L12.29616193047611,41.18021344146162 " />
			<path d="M38.30653858603263,43.03109003548532 L38.30653858603263,56.27850280335345 " />
			<path d="M56.28699308188745,44.31056410143187 L43.7619926929104,43.419295575524416 " />
			<path d="M56.286993081887445,44.310564101431865 L56.286993081887445,57.55797686929999 " />
			<path d="M74.81701177616014,46.25123741873977 L62.30111035363946,44.224715678862594 " />
			<path d="M74.81701177616013,46.25123741873977 L73.70887879870367,59.31151161427183 " />
			<path d="M93.29267274012923,52.89838849957844 L80.87705012726491,49.743921053005685 " />
			<path d="M93.29267274012922,52.898388499578424 L91.09394240262347,65.67732218333484 " />
			<path d="M111.27317442890187,40.18877428138933 L98.85755181603753,37.034306834816576 " />
			<path d="M111.27317442890185,40.18877428138932 L109.0744440913961,52.96770796514575 " />
			<path d="M129.2536761176745,46.13128225299237 L116.83805350481019,42.976814806419625 " />
			<path d="M129.25367611767447,46.131282252992364 L127.05494578016872,58.910215936748784 " />
			<path d="M147.23417780644715,52.07379022459541 L134.8185551935828,48.91932277802266 " />
			<path d="M147.23417780644712,52.073790224595406 L145.03544746894138,64.85272390835182 " />
			<path d="M225.85676241460948,22.65209510379423 L213.58317997268747,24.023718387327524 " />
			<path d="M225.85676241460945,22.652095103794228 L228.09533788879043,35.98119745216953 " />
			<path d="M244.48256823441582,19.82811609839289 L232.03878249666093,20.07198245323694 " />
			<path d="M244.48256823441582,19.82811609839289 L245.60073874236227,33.16582713967406 " />
			<path d="M207.8762607258368,26.035648227087258 L195.6026782839148,27.407271510620554 " />
			<path d="M207.87626072583683,26.035648227087258 L210.1148362000178,39.36475057546256 " />
			<path d="M189.8957590370642,29.41920135038028 L177.6221765951422,30.790824633913576 " />
			<path d="M189.89575903706418,29.419201350380288 L192.13433451124519,42.748303698755585 " />
			<path d="M253.4728190788021,39.11997700026253 L241.0290333410472,39.36384335510658 " />
			<path d="M253.47281907880208,39.11997700026254 L254.59098958674852,52.45768804154369 " />
			<path d="M263.0627625027728,21.720310099630176 L250.53776211379565,20.829041573722723 " />
			<path d="M263.0627625027728,21.720310099630176 L263.0627625027728,34.967722867498296 " />
			<path d="M281.04326419154535,22.999787523785177 L268.51826380256824,22.108518997877724 " />
			<path d="M281.04326419154535,22.99978752378518 L281.04326419154535,36.24720029165329 " />
			<path d="M299.023765880318,24.279264947940185 L286.4987654913409,23.38799642203273 " />
			<path d="M299.02376588031797,24.279264947940188 L299.02376588031797,37.5266777158083 " />
			<path d="M334.98476925786326,26.838219796250197 L304.47926718011354,24.66747384618774 " />
			<path d="M334.9847692578632,26.838219796250197 L334.9847692578632,40.08563256411831 " />
			<path d="M272.05301334715904,41.012171001499816 L259.52801295818193,40.12090247559236 " />
			<path d="M272.05301334715904,41.01217100149982 L272.05301334715904,54.259583769367936 " />
			<path d="M290.0335150359317,42.29164842565483 L277.5085146469546,41.40037989974737 " />
			<path d="M290.0335150359317,42.29164842565483 L290.0335150359317,55.53906119352294 " />
			<path d="M308.01401672470433,43.57112584980983 L295.48901633572723,42.679857323902375 " />
			<path d="M308.01401672470433,43.57112584980983 L308.01401672470433,56.818538617677945 " />
			<path d="M334.98476925786326,45.49034198604234 L313.4695180244999,43.95933474805739 " />
			<path d="M334.98476925786326,45.49034198604234 L334.98476925786326,58.73775475391045 " />
			<path d="M234.8470132589958,41.943956005663864 L222.5734308170738,43.31557928919716 " />
			<path d="M234.84701325899576,41.94395600566387 L237.08558873317673,55.27305835403916 " />
			<path d="M216.86651157022314,45.327509128956905 L204.5929291283011,46.69913241249021 " />
			<path d="M216.86651157022314,45.327509128956905 L219.10508704440414,58.6566114773322 " />
			<path d="M180.9055081926779,52.09461537554296 L168.63192575075587,53.466238659076254 " />
			<path d="M180.90550819267787,52.09461537554296 L183.14408366685885,65.42371772391824 " />
			<path d="M198.88600988145052,48.71106225224993 L186.61242743952852,50.08268553578323 " />
			<path d="M198.88600988145052,48.71106225224993 L201.1245853556315,62.04016460062522 " />
			<path d="M239.34213868118894,60.91594755149477 L227.0685562392669,62.28757083502806 " />
			<path d="M239.3421386811889,60.91594755149477 L241.5807141553699,74.24504989987005 " />
			<path d="M257.96794450099526,58.09196854609342 L245.52415876324037,58.33583490093747 " />
			<path d="M257.9679445009952,58.09196854609341 L259.0861150089417,71.42967958737458 " />
			<path d="M276.5481387693522,59.984162547330705 L264.0231383803751,59.09289402142325 " />
			<path d="M276.5481387693522,59.9841625473307 L276.5481387693522,73.23157531519882 " />
			<path d="M294.52864045812487,61.26363997148571 L282.00364006914776,60.37237144557825 " />
			<path d="M294.52864045812487,61.26363997148571 L294.52864045812487,74.51105273935383 " />
			<path d="M334.98481645078107,64.14246753404294 L299.9841889508382,61.65185222794172 " />
			<path d="M334.98481645078107,64.14246753404294 L334.98481645078107,77.38988030191105 " />
			<path d="M38.30653858603263,61.68321222527747 L3.305911086089794,59.19259691917626 " />
			<path d="M38.30653858603263,61.68321222527747 L38.30653858603263,74.93062499314559 " />
			<path d="M56.28699308188745,62.96268629122402 L43.7619926929104,62.07141776531656 " />
			<path d="M56.286993081887445,62.96268629122402 L56.286993081887445,76.21009905909213 " />
			<path d="M74.81701177616014,64.90335960853191 L62.30111035363946,62.87683786865473 " />
			<path d="M74.81701177616014,64.90335960853191 L73.70887879870367,77.96363380406397 " />
			<path d="M93.29267274012923,71.55051068937055 L80.87705012726492,68.39604324279782 " />
			<path d="M93.29267274012923,71.55051068937057 L91.09394240262348,84.32944437312698 " />
			<path d="M111.27317442890187,58.84089647118146 L98.85755181603754,55.686429024608714 " />
			<path d="M111.27317442890187,58.84089647118146 L109.07444409139612,71.61983015493787 " />
			<path d="M129.2536761176745,64.78340444278452 L116.83805350481019,61.62893699621177 " />
			<path d="M129.25367611767447,64.7834044427845 L127.05494578016872,77.56233812654092 " />
			<path d="M147.23417780644715,70.72591241438754 L134.81855519358282,67.57144496781478 " />
			<path d="M147.23417780644715,70.72591241438755 L145.03544746894138,83.50484609814397 " />
			<path d="M111.27317442890187,77.4930186609736 L98.85755181603756,74.33855121440085 " />
			<path d="M111.27317442890187,77.4930186609736 L109.07444409139612,90.27195234473001 " />
			<path d="M129.2536761176745,83.43552663257664 L116.83805350481018,80.2810591860039 " />
			<path d="M129.2536761176745,83.43552663257665 L127.05494578016874,96.21446031633305 " />
			<path d="M20.326036897260003,79.05585699091459 L3.3059110860897922,77.84471910896839 " />
			<path d="M20.326036897260003,79.05585699091459 L20.326036897260003,92.3032697587827 " />
			<path d="M42.80166400822579,80.65520377110835 L25.781538197055582,79.44406588916215 " />
			<path d="M42.80166400822579,80.65520377110835 L42.80166400822579,93.90261653897646 " />
			<path d="M65.27729111919159,82.25455055130212 L48.25716530802137,81.04341266935592 " />
			<path d="M65.27729111919159,82.25455055130212 L65.27729111919159,95.50196331917022 " />
			<path d="M124.54761842839203,101.24761492704909 L77.02256938749872,87.38668309817527 " />
			<path d="M124.54761842839203,101.24761492704909 L121.9191756755486,113.88832612846238 " />
			<path d="M143.17608546807728,103.78998445626696 L130.95229396963617,99.52245124776461 " />
			<path d="M143.17608546807725,103.78998445626695 L139.9114578485017,116.19652877038916 " />
			<path d="M203.38113530364367,67.68305379808083 L191.1075528617217,69.05467708161413 " />
			<path d="M203.38113530364367,67.6830537980808 L205.61971077782465,81.0121561464561 " />
			<path d="M185.40063361487103,71.06660692137385 L173.12705117294905,72.43823020490714 " />
			<path d="M185.40063361487103,71.06660692137385 L187.639209089052,84.39570926974915 " />
			<path d="M221.36163699241632,64.2995006747878 L209.08805455049432,65.67112395832109 " />
			<path d="M221.3616369924163,64.2995006747878 L223.60021246659727,77.6286030231631 " />
			<path d="M207.87626072583683,86.65504534391171 L195.60267828391486,88.026668627445 " />
			<path d="M207.8762607258368,86.6550453439117 L210.11483620001778,99.98414769228701 " />
			<path d="M243.8372641033821,79.88793909732566 L231.56368166146012,81.25956238085894 " />
			<path d="M243.8372641033821,79.88793909732566 L246.07583957756307,93.21704144570096 " />
			<path d="M225.85676241460945,83.27149222061867 L213.58317997268745,84.64311550415196 " />
			<path d="M225.85676241460948,83.27149222061868 L228.09533788879045,96.600594568994 " />
			<path d="M262.46306992318847,77.06396009192432 L250.01928418543355,77.30782644676837 " />
			<path d="M262.4630699231884,77.06396009192432 L263.5812404311349,90.40167113320547 " />
			<path d="M281.04326419154535,78.95615409316159 L268.51826380256824,78.06488556725414 " />
			<path d="M281.04326419154535,78.9561540931616 L281.04326419154535,92.20356686102971 " />
			<path d="M314.7567048579941,81.35517426345224 L288.7463282024375,79.50429766942852 " />
			<path d="M314.75670485799407,81.35517426345224 L314.75670485799407,94.60258703132035 " />
			<path d="M334.98476925786326,82.79458636562663 L322.45976886888616,81.90331783971916 " />
			<path d="M334.98476925786326,82.79458636562661 L334.98476925786326,96.04199913349473 " />
			<path d="M247.4645041106055,98.98590706078726 L200.29572102903887,106.92595013694918 " />
			<path d="M247.46450411060547,98.98590706078727 L250.37304767682528,112.26174302785854 " />
			<path d="M192.9833959137712,103.40443653758723 L181.3097773924906,106.98130735739163 " />
			<path d="M192.98339591377118,103.40443653758723 L197.43698455828306,116.41453720569213 " />
			<path d="M272.05301334715904,96.96853757087622 L259.52801295818193,96.07726904496877 " />
			<path d="M272.05301334715904,96.96853757087622 L272.05301334715904,110.21595033874434 " />
			<path d="M290.0335150359317,98.24801499503123 L277.5085146469546,97.35674646912378 " />
			<path d="M290.0335150359317,98.24801499503124 L290.0335150359317,111.49542776289934 " />
			<path d="M308.01401672470433,99.52749241918625 L295.48901633572723,98.63622389327878 " />
			<path d="M308.01401672470433,99.52749241918625 L308.01401672470433,112.77490518705434 " />
			<path d="M325.99451841347695,100.80696984334125 L313.46951802449985,99.91570131743379 " />
			<path d="M325.99451841347695,100.80696984334125 L325.99451841347695,114.05438261120935 " />
			<path d="M15.830864282149028,4.127495517498832 L16.49156513160524,3.743700264658935 " />
			<path d="M33.811365970921656,5.406972941653839 L34.47206682037787,5.023177688813941 " />
			<path d="M51.7918676596943,6.686450365808845 L52.45256850915051,6.302655112968948 " />
			<path d="M69.77236934846692,7.965927789963853 L70.43307019792314,7.582132537123956 " />
			<path d="M88.3023880427396,9.906601107271747 L88.96308889219581,9.52280585443185 " />
			<path d="M38.30649139311482,24.37896448748473 L38.96719224257103,23.995169234644834 " />
			<path d="M56.286993081887445,25.658441911639738 L56.94769393134366,25.274646658799842 " />
			<path d="M74.81701177616013,27.599115228947632 L75.47771262561635,27.215319976107736 " />
			<path d="M106.7780490067087,16.553752188110398 L107.43874985616492,16.169956935270502 " />
			<path d="M124.75855069548133,22.49626015971344 L125.41925154493755,22.112464906873544 " />
			<path d="M142.73905238425394,28.43876813131648 L143.39975323371013,28.054972878476583 " />
			<path d="M93.29267274012922,34.24626630978628 L93.95337358958544,33.86247105694638 " />
			<path d="M38.30653858603263,43.03109003548533 L38.96723943548884,42.64729478264543 " />
			<path d="M56.286993081887445,44.31056410143187 L56.94769393134366,43.926768848591976 " />
			<path d="M74.81701177616013,46.25123741873977 L75.47771262561635,45.867442165899874 " />
			<path d="M93.29267274012922,52.89838849957842 L93.95337358958544,52.51459324673852 " />
			<path d="M111.27317442890185,40.18877428138932 L111.93387527835807,39.804979028549425 " />
			<path d="M129.25367611767447,46.131282252992364 L129.91437696713066,45.74748700015247 " />
			<path d="M147.23417780644712,52.0737902245954 L147.8948786559033,51.6899949717555 " />
			<path d="M225.85676241460945,22.65209510379423 L226.51746326406564,22.268299850954335 " />
			<path d="M244.4825682344158,19.82811609839289 L245.14326908387199,19.444320845552994 " />
			<path d="M207.8762607258368,26.035648227087258 L208.536961575293,25.65185297424736 " />
			<path d="M189.89575903706418,29.419201350380284 L190.55645988652037,29.03540609754039 " />
			<path d="M253.47281907880208,39.11997700026253 L254.13351992825827,38.736181747422634 " />
			<path d="M263.0627625027728,21.720310099630176 L263.72346335222903,21.33651484679028 " />
			<path d="M281.04326419154535,22.99978752378518 L281.7039650410016,22.615992270945284 " />
			<path d="M299.02376588031797,24.279264947940185 L299.6844667297742,23.89546969510029 " />
			<path d="M334.9847692578632,26.838219796250197 L335.64547010731945,26.4544245434103 " />
			<path d="M272.05301334715904,41.012171001499816 L272.7137141966153,40.62837574865992 " />
			<path d="M290.0335150359317,42.29164842565483 L290.69421588538796,41.90785317281493 " />
			<path d="M308.01401672470433,43.57112584980983 L308.6747175741606,43.187330596969936 " />
			<path d="M334.98476925786326,45.49034198604234 L335.6454701073195,45.10654673320244 " />
			<path d="M234.84701325899576,41.943956005663864 L235.50771410845195,41.56016075282397 " />
			<path d="M216.8665115702231,45.3275091289569 L217.5272124196793,44.943713876117 " />
			<path d="M180.90550819267787,52.09461537554296 L181.56620904213406,51.71082012270306 " />
			<path d="M198.8860098814505,48.711062252249924 L199.54671073090668,48.32726699941003 " />
			<path d="M239.3421386811889,60.91594755149477 L240.0028395306451,60.53215229865487 " />
			<path d="M257.96794450099526,58.09196854609341 L258.6286453504515,57.708173293253516 " />
			<path d="M276.5481387693522,59.9841625473307 L277.20883961880844,59.6003672944908 " />
			<path d="M294.52864045812487,61.26363997148571 L295.1893413075811,60.87984471864581 " />
			<path d="M334.98481645078107,64.14246753404294 L335.6455173002373,63.75867228120304 " />
			<path d="M38.30653858603263,61.68321222527747 L38.96723943548884,61.29941697243758 " />
			<path d="M56.286993081887445,62.96268629122402 L56.94769393134366,62.57889103838412 " />
			<path d="M74.81701177616013,64.9033596085319 L75.47771262561635,64.519564355692 " />
			<path d="M93.29267274012922,71.55051068937057 L93.95337358958544,71.16671543653067 " />
			<path d="M111.27317442890185,58.84089647118145 L111.93387527835807,58.457101218341556 " />
			<path d="M129.25367611767447,64.7834044427845 L129.91437696713066,64.3996091899446 " />
			<path d="M147.23417780644712,70.72591241438755 L147.8948786559033,70.34211716154765 " />
			<path d="M111.27317442890185,77.49301866097359 L111.93387527835807,77.10922340813369 " />
			<path d="M129.25367611767447,83.43552663257664 L129.91437696713066,83.05173137973674 " />
			<path d="M20.32603689726,79.05585699091459 L20.986737746716212,78.67206173807469 " />
			<path d="M42.80166400822579,80.65520377110835 L43.462364857682005,80.27140851826844 " />
			<path d="M65.27729111919159,82.25455055130212 L65.93799196864781,81.87075529846221 " />
			<path d="M124.54761842839201,101.24761492704909 L125.20831927784823,100.86381967420918 " />
			<path d="M143.17608546807725,103.78998445626694 L143.83678631753344,103.40618920342703 " />
			<path d="M203.38113530364365,67.68305379808082 L204.04183615309984,67.29925854524092 " />
			<path d="M185.400633614871,71.06660692137383 L186.0613344643272,70.68281166853393 " />
			<path d="M221.3616369924163,64.29950067478778 L222.02233784187248,63.915705421947884 " />
			<path d="M207.8762607258368,86.65504534391171 L208.536961575293,86.2712500910718 " />
			<path d="M243.83726410338207,79.88793909732564 L244.49796495283826,79.50414384448574 " />
			<path d="M225.85676241460945,83.27149222061867 L226.51746326406564,82.88769696777877 " />
			<path d="M262.4630699231884,77.06396009192432 L263.12377077264466,76.68016483908441 " />
			<path d="M281.04326419154535,78.9561540931616 L281.7039650410016,78.5723588403217 " />
			<path d="M314.75670485799407,81.35517426345224 L315.4174057074503,80.97137901061234 " />
			<path d="M334.98476925786326,82.79458636562661 L335.6454701073195,82.41079111278671 " />
			<path d="M247.4645041106055,98.98590706078727 L248.1252049600617,98.60211180794737 " />
			<path d="M192.9833959137712,103.40443653758722 L193.6440967632274,103.02064128474731 " />
			<path d="M272.05301334715904,96.96853757087622 L272.7137141966153,96.58474231803632 " />
			<path d="M290.0335150359317,98.24801499503123 L290.69421588538796,97.86421974219132 " />
			<path d="M308.01401672470433,99.52749241918625 L308.6747175741606,99.14369716634634 " />
			<path d="M325.99451841347695,100.80696984334124 L326.6552192629332,100.42317459050133 " />

       </g>
    </g>
    <g transform="translate(20,210.0)" stroke="rgb(0,0,255)">
        <line x1="30" y1="-30" x2="75" y2="-33" stroke-width="3" stroke="#000000" />
         <text x="80" y="-30" style="stroke:#000000">X </text>

        <line x1="30" y1="-30" x2="30" y2="-75" stroke-width="3" stroke="#000000" />
         <text x="25" y="-85" style="stroke:#000000">Y </text>

        <line x1="30" y1="-30" x2="58" y2="-15" stroke-width="3" stroke="#000000" />
         <text x="65" y="-5" style="stroke:#000000">Z </text>
        <!--
            <line x1="0" y1="0" x2="1.317998606296994" y2="0" stroke-width="3" />
            <text x="0" y="20" style="stroke:#000000">1  mm </text>
        -->
    </g>
</svg>
