<?xml version="1.0" encoding="UTF-8" standalone="no"?>
<svg
   xmlns:svg="http://www.w3.org/2000/svg"
   xmlns="http://www.w3.org/2000/svg"
   width="800.0"
   height="240.0"

>
    <g transform="scale(1.9876444575672745, -1.9876444575672745)   translate(100.62161733129314,-100.23782207845323)" stroke-width="0.5031080866564657"  fill="none">
       <!-- hidden lines -->
       <g  stroke="rgb(160,160,160)" fill="none" stroke-dasharray="0.5031080866564657,0.5031080866564657" >
			<path d="M0.0,0.0 L99.05793450061354,7.048879562470758 " />
			<path d="M99.05793450061353,7.048879562470758 L99.71863535006973,6.665084309630862 " />
			<path d="M99.05793450061353,7.048879562470758 L99.05793450061353,90.17566034532392 " />
			<path d="M25.376575769256746,7.820277491511111 L24.715874919800534,7.773262573038224 " />
			<path d="M37.901576158233794,21.958958785286676 L37.901576158233794,22.38976895659946 " />
			<path d="M24.715874919800534,7.773262573038223 L24.715874919800534,21.451485512219126 " />
			<path d="M37.9015761582338,22.389768956599465 L24.715874919800534,21.451485512219126 " />
			<path d="M43.49865621148428,9.109829541053164 L42.83795536202807,9.062814622580277 " />
			<path d="M56.02365660046134,23.248510834828732 L56.02365660046134,23.679321006141517 " />
			<path d="M42.83795536202807,9.062814622580277 L42.83795536202807,22.74103756176118 " />
			<path d="M56.02365660046134,23.679321006141517 L42.83795536202807,22.74103756176118 " />
			<path d="M25.376575769256746,26.619266785159883 L24.715874919800534,26.572251866686997 " />
			<path d="M37.901576158233794,40.75794807893545 L37.901576158233794,41.188758250248235 " />
			<path d="M24.715874919800534,26.572251866686997 L24.715874919800534,40.250474805867896 " />
			<path d="M37.9015761582338,41.18875825024823 L24.715874919800534,40.25047480586789 " />
			<path d="M43.49865621148428,27.908818834701936 L42.83795536202807,27.86180391622905 " />
			<path d="M56.02365660046134,42.04750012847751 L56.02365660046134,42.478310299790294 " />
			<path d="M42.83795536202807,27.86180391622905 L42.83795536202807,41.54002685540995 " />
			<path d="M56.02365660046134,42.47831029979029 L42.83795536202807,41.540026855409955 " />
			<path d="M61.62073665371182,10.399381590595217 L60.960035804255604,10.35236667212233 " />
			<path d="M74.14573704268886,24.538062884370785 L74.14573704268886,24.96887305568357 " />
			<path d="M60.960035804255604,10.352366672122331 L60.960035804255604,24.030589611303235 " />
			<path d="M74.14573704268886,24.96887305568357 L60.960035804255604,24.03058961130323 " />
			<path d="M79.74281709593936,11.688933640137273 L79.08211624648314,11.641918721664386 " />
			<path d="M92.2678174849164,25.82761493391284 L92.2678174849164,26.258425105225626 " />
			<path d="M79.08211624648314,11.641918721664386 L79.08211624648314,25.320141660845287 " />
			<path d="M92.2678174849164,26.258425105225623 L79.08211624648314,25.320141660845284 " />
			<path d="M61.62073665371182,29.198370884243992 L60.960035804255604,29.151355965771103 " />
			<path d="M74.14573704268886,43.33705217801956 L74.14573704268886,43.76786234933235 " />
			<path d="M60.960035804255604,29.151355965771103 L60.960035804255604,42.829578904952 " />
			<path d="M74.14573704268886,43.76786234933234 L60.960035804255604,42.82957890495201 " />
			<path d="M79.74281709593936,30.487922933786045 L79.08211624648314,30.440908015313155 " />
			<path d="M92.2678174849164,44.626604227561614 L92.2678174849164,45.0574143988744 " />
			<path d="M79.08211624648314,30.44090801531316 L79.08211624648314,44.11913095449406 " />
			<path d="M92.2678174849164,45.0574143988744 L79.08211624648314,44.11913095449406 " />
			<path d="M25.376575769256746,45.418256078808646 L24.715874919800534,45.37124116033576 " />
			<path d="M37.901576158233794,59.556937372584215 L37.901576158233794,59.987747543897 " />
			<path d="M24.715874919800534,45.371241160335764 L24.715874919800534,59.04946409951666 " />
			<path d="M37.9015761582338,59.987747543896994 L24.715874919800534,59.049464099516655 " />
			<path d="M43.49865621148428,46.707808128350706 L42.83795536202807,46.66079320987782 " />
			<path d="M56.02365660046134,60.846489422126275 L56.02365660046134,61.277299593439054 " />
			<path d="M42.83795536202807,46.660793209877816 L42.83795536202807,60.339016149058715 " />
			<path d="M56.02365660046134,61.277299593439054 L42.83795536202807,60.33901614905872 " />
			<path d="M25.376575769256746,64.21724537245741 L24.715874919800534,64.17023045398453 " />
			<path d="M37.901576158233794,78.35592666623299 L37.901576158233794,78.78673683754576 " />
			<path d="M24.715874919800534,64.17023045398453 L24.715874919800534,77.84845339316543 " />
			<path d="M37.9015761582338,78.78673683754577 L24.715874919800534,77.84845339316544 " />
			<path d="M43.49865621148428,65.50679742199948 L42.83795536202807,65.45978250352658 " />
			<path d="M56.02365660046134,79.64547871577503 L56.02365660046134,80.07628888708783 " />
			<path d="M42.83795536202807,65.45978250352658 L42.83795536202807,79.13800544270748 " />
			<path d="M56.02365660046134,80.07628888708783 L42.83795536202807,79.13800544270748 " />
			<path d="M61.62073665371182,47.99736017789276 L60.960035804255604,47.950345259419876 " />
			<path d="M74.14573704268886,62.13604147166833 L74.14573704268886,62.566851642981106 " />
			<path d="M60.960035804255604,47.95034525941987 L60.960035804255604,61.62856819860077 " />
			<path d="M74.14573704268886,62.566851642981106 L60.960035804255604,61.628568198600775 " />
			<path d="M79.74281709593936,49.28691222743481 L79.08211624648314,49.23989730896193 " />
			<path d="M92.2678174849164,63.42559352121039 L92.2678174849164,63.85640369252316 " />
			<path d="M79.08211624648314,49.23989730896193 L79.08211624648314,62.91812024814283 " />
			<path d="M92.2678174849164,63.856403692523166 L79.08211624648314,62.91812024814283 " />
			<path d="M61.62073665371182,66.79634947154152 L60.960035804255604,66.74933455306864 " />
			<path d="M74.14573704268886,80.9350307653171 L74.14573704268886,81.36584093662988 " />
			<path d="M60.960035804255604,66.74933455306864 L60.960035804255604,80.42755749224955 " />
			<path d="M74.14573704268886,81.36584093662988 L60.960035804255604,80.42755749224955 " />
			<path d="M79.74281709593936,68.08590152108358 L79.08211624648314,68.03888660261069 " />
			<path d="M92.2678174849164,82.22458281485913 L92.2678174849164,82.65539298617193 " />
			<path d="M92.2678174849164,82.65539298617193 L79.08211624648314,81.71710954179159 " />
			<path d="M79.08211624648314,68.03888660261069 L79.08211624648314,81.71710954179159 " />
			<path d="M24.71587491980053,7.773262573038223 L25.376575769256743,7.389467320198325 " />
			<path d="M37.901576158233794,22.389768956599465 L38.56227700769001,22.00597370375957 " />
			<path d="M24.71587491980053,21.451485512219126 L25.376575769256743,21.06769025937923 " />
			<path d="M42.83795536202807,9.062814622580277 L43.49865621148428,8.679019369740379 " />
			<path d="M56.02365660046134,23.679321006141517 L56.68435744991755,23.29552575330162 " />
			<path d="M42.83795536202807,22.74103756176118 L43.49865621148428,22.357242308921283 " />
			<path d="M24.71587491980053,26.572251866686997 L25.376575769256743,26.1884566138471 " />
			<path d="M37.901576158233794,41.188758250248235 L38.56227700769001,40.80496299740834 " />
			<path d="M24.71587491980053,40.250474805867896 L25.376575769256743,39.866679553028 " />
			<path d="M42.83795536202807,27.86180391622905 L43.49865621148428,27.478008663389154 " />
			<path d="M56.02365660046134,42.47831029979029 L56.68435744991755,42.09451504695039 " />
			<path d="M42.83795536202807,41.54002685540995 L43.49865621148428,41.15623160257005 " />
			<path d="M60.960035804255604,10.352366672122331 L61.620736653711816,9.968571419282434 " />
			<path d="M74.14573704268886,24.96887305568357 L74.80643789214508,24.585077802843674 " />
			<path d="M60.960035804255604,24.03058961130323 L61.620736653711816,23.646794358463335 " />
			<path d="M79.08211624648314,11.641918721664386 L79.74281709593936,11.258123468824488 " />
			<path d="M92.2678174849164,26.258425105225626 L92.92851833437263,25.87462985238573 " />
			<path d="M79.08211624648314,25.320141660845287 L79.74281709593936,24.93634640800539 " />
			<path d="M60.960035804255604,29.151355965771103 L61.620736653711816,28.767560712931207 " />
			<path d="M74.14573704268886,43.76786234933234 L74.80643789214508,43.384067096492444 " />
			<path d="M60.960035804255604,42.829578904952 L61.620736653711816,42.445783652112105 " />
			<path d="M79.08211624648314,30.44090801531316 L79.74281709593936,30.057112762473263 " />
			<path d="M92.2678174849164,45.05741439887439 L92.92851833437263,44.6736191460345 " />
			<path d="M79.08211624648314,44.119130954494054 L79.74281709593936,43.73533570165416 " />
			<path d="M24.71587491980053,45.371241160335764 L25.376575769256743,44.98744590749587 " />
			<path d="M37.901576158233794,59.987747543897 L38.56227700769001,59.603952291057105 " />
			<path d="M24.71587491980053,59.04946409951666 L25.376575769256743,58.665668846676766 " />
			<path d="M42.83795536202807,46.660793209877816 L43.49865621148428,46.27699795703792 " />
			<path d="M56.02365660046134,61.277299593439054 L56.68435744991755,60.89350434059916 " />
			<path d="M42.83795536202807,60.339016149058715 L43.49865621148428,59.95522089621882 " />
			<path d="M24.71587491980053,64.17023045398453 L25.376575769256743,63.786435201144634 " />
			<path d="M37.901576158233794,78.78673683754577 L38.56227700769001,78.40294158470587 " />
			<path d="M24.71587491980053,77.84845339316543 L25.376575769256743,77.46465814032553 " />
			<path d="M42.83795536202807,65.45978250352658 L43.49865621148428,65.07598725068668 " />
			<path d="M56.02365660046134,80.07628888708783 L56.68435744991755,79.69249363424792 " />
			<path d="M42.83795536202807,79.1380054427075 L43.49865621148428,78.75421018986759 " />
			<path d="M60.960035804255604,47.95034525941987 L61.620736653711816,47.56655000657997 " />
			<path d="M74.14573704268886,62.566851642981106 L74.80643789214508,62.18305639014121 " />
			<path d="M60.960035804255604,61.62856819860077 L61.620736653711816,61.24477294576087 " />
			<path d="M79.08211624648314,49.23989730896192 L79.74281709593936,48.856102056122026 " />
			<path d="M92.2678174849164,63.85640369252316 L92.92851833437263,63.47260843968326 " />
			<path d="M79.08211624648314,62.91812024814282 L79.74281709593936,62.534324995302924 " />
			<path d="M60.960035804255604,66.74933455306864 L61.620736653711816,66.36553930022873 " />
			<path d="M74.14573704268886,81.36584093662988 L74.80643789214508,80.98204568378998 " />
			<path d="M60.960035804255604,80.42755749224955 L61.620736653711816,80.04376223940965 " />
			<path d="M79.08211624648314,68.03888660261069 L79.74281709593936,67.65509134977079 " />
			<path d="M92.2678174849164,82.65539298617193 L92.92851833437263,82.27159773333203 " />
			<path d="M79.08211624648314,81.7171095417916 L79.74281709593936,81.3333142889517 " />

       </g>

       <!-- solid lines -->
       <g  stroke="rgb(0,0,0)" fill="none">
			<path d="M0.0,0.0 L0.6607008494562123,-0.38379525283989696 " />
			<path d="M0.6607008494562123,-0.3837952528398969 L0.6607008494562121,82.74298553001326 " />
			<path d="M-1.7005197123263435e-16,83.12678078285316 L0.6607008494562121,82.74298553001326 " />
			<path d="M0.0,0.0 L-1.7005197123263437e-16,83.12678078285316 " />
			<path d="M0.6607008494562123,-0.3837952528398969 L99.71863535006975,6.665084309630862 " />
			<path d="M0.6607008494562121,82.74298553001326 L99.71863535006975,89.79186509248402 " />
			<path d="M99.71863535006975,6.665084309630862 L99.71863535006975,89.79186509248402 " />
			<path d="M38.562277007690014,8.327750764578665 L25.376575769256746,7.389467320198327 " />
			<path d="M38.56227700769001,8.327750764578663 L38.56227700769001,22.005973703759565 " />
			<path d="M25.376575769256746,7.389467320198326 L25.376575769256746,21.067690259379226 " />
			<path d="M38.562277007690014,22.00597370375957 L25.376575769256746,21.06769025937923 " />
			<path d="M56.68435744991755,9.617302814120718 L43.49865621148428,8.67901936974038 " />
			<path d="M56.68435744991755,9.61730281412072 L56.68435744991755,23.29552575330162 " />
			<path d="M43.49865621148428,8.67901936974038 L43.49865621148428,22.357242308921283 " />
			<path d="M56.68435744991755,23.29552575330162 L43.49865621148428,22.357242308921283 " />
			<path d="M38.562277007690014,27.12674005822744 L25.376575769256746,26.1884566138471 " />
			<path d="M38.56227700769001,27.126740058227437 L38.56227700769001,40.80496299740834 " />
			<path d="M25.376575769256746,26.1884566138471 L25.376575769256746,39.866679553028 " />
			<path d="M38.562277007690014,40.80496299740833 L25.376575769256746,39.86667955302799 " />
			<path d="M56.68435744991755,28.416292107769493 L43.49865621148428,27.478008663389154 " />
			<path d="M56.68435744991755,28.416292107769493 L56.68435744991755,42.09451504695039 " />
			<path d="M43.49865621148428,27.478008663389154 L43.49865621148428,41.15623160257005 " />
			<path d="M56.68435744991755,42.09451504695039 L43.49865621148428,41.15623160257006 " />
			<path d="M74.80643789214508,10.90685486366277 L61.620736653711816,9.968571419282434 " />
			<path d="M74.80643789214508,10.906854863662772 L74.80643789214508,24.585077802843674 " />
			<path d="M61.620736653711816,9.968571419282434 L61.620736653711816,23.646794358463335 " />
			<path d="M74.80643789214508,24.585077802843674 L61.620736653711816,23.646794358463335 " />
			<path d="M92.92851833437263,12.196406913204825 L79.74281709593936,11.258123468824488 " />
			<path d="M92.92851833437263,12.196406913204825 L92.92851833437263,25.874629852385727 " />
			<path d="M79.74281709593936,11.258123468824488 L79.74281709593936,24.93634640800539 " />
			<path d="M92.92851833437263,25.874629852385727 L79.74281709593936,24.936346408005388 " />
			<path d="M74.80643789214508,29.705844157311546 L61.620736653711816,28.767560712931207 " />
			<path d="M74.80643789214508,29.705844157311546 L74.80643789214508,43.384067096492444 " />
			<path d="M61.620736653711816,28.767560712931207 L61.620736653711816,42.44578365211211 " />
			<path d="M74.80643789214508,43.384067096492444 L61.620736653711816,42.44578365211211 " />
			<path d="M92.92851833437263,30.9953962068536 L79.74281709593936,30.05711276247326 " />
			<path d="M92.92851833437263,30.995396206853602 L92.92851833437263,44.673619146034504 " />
			<path d="M79.74281709593936,30.057112762473263 L79.74281709593936,43.735335701654165 " />
			<path d="M92.92851833437263,44.673619146034504 L79.74281709593936,43.735335701654165 " />
			<path d="M38.562277007690014,45.9257293518762 L25.376575769256746,44.98744590749586 " />
			<path d="M38.56227700769001,45.92572935187621 L38.56227700769001,59.603952291057105 " />
			<path d="M25.376575769256746,44.98744590749587 L25.376575769256746,58.665668846676766 " />
			<path d="M38.562277007690014,59.6039522910571 L25.376575769256746,58.66566884667676 " />
			<path d="M56.68435744991755,47.21528140141826 L43.49865621148428,46.27699795703793 " />
			<path d="M56.68435744991755,47.21528140141826 L56.68435744991755,60.89350434059916 " />
			<path d="M43.49865621148428,46.27699795703792 L43.49865621148428,59.95522089621882 " />
			<path d="M56.68435744991755,60.89350434059916 L43.49865621148428,59.955220896218826 " />
			<path d="M38.562277007690014,64.72471864552497 L25.376575769256746,63.78643520114463 " />
			<path d="M38.56227700769001,64.72471864552497 L38.56227700769001,78.40294158470587 " />
			<path d="M25.376575769256746,63.78643520114463 L25.376575769256746,77.46465814032553 " />
			<path d="M38.562277007690014,78.40294158470587 L25.376575769256746,77.46465814032554 " />
			<path d="M56.68435744991755,66.01427069506703 L43.49865621148428,65.0759872506867 " />
			<path d="M56.68435744991755,66.01427069506703 L56.68435744991755,79.69249363424792 " />
			<path d="M43.49865621148428,65.0759872506867 L43.49865621148428,78.75421018986759 " />
			<path d="M56.68435744991755,79.69249363424792 L43.49865621148428,78.75421018986758 " />
			<path d="M74.80643789214508,48.50483345096031 L61.620736653711816,47.56655000657998 " />
			<path d="M74.80643789214508,48.50483345096031 L74.80643789214508,62.18305639014121 " />
			<path d="M61.620736653711816,47.56655000657997 L61.620736653711816,61.24477294576087 " />
			<path d="M74.80643789214508,62.18305639014121 L61.620736653711816,61.24477294576088 " />
			<path d="M92.92851833437263,49.79438550050237 L79.74281709593936,48.85610205612203 " />
			<path d="M92.92851833437263,49.79438550050237 L92.92851833437263,63.47260843968327 " />
			<path d="M79.74281709593936,48.856102056122026 L79.74281709593936,62.534324995302924 " />
			<path d="M92.92851833437263,63.47260843968327 L79.74281709593936,62.53432499530293 " />
			<path d="M74.80643789214508,67.30382274460906 L61.620736653711816,66.36553930022873 " />
			<path d="M74.80643789214508,67.30382274460908 L74.80643789214508,80.98204568378998 " />
			<path d="M61.620736653711816,66.36553930022875 L61.620736653711816,80.04376223940965 " />
			<path d="M74.80643789214508,80.98204568378998 L61.620736653711816,80.04376223940965 " />
			<path d="M92.92851833437263,68.59337479415113 L79.74281709593936,67.65509134977079 " />
			<path d="M92.92851833437263,68.59337479415113 L92.92851833437263,82.27159773333204 " />
			<path d="M92.92851833437263,82.27159773333203 L79.74281709593936,81.33331428895168 " />
			<path d="M79.74281709593936,67.6550913497708 L79.74281709593936,81.3333142889517 " />
			<path d="M-1.7005197123263435e-16,83.12678078285316 L99.05793450061354,90.17566034532392 " />
			<path d="M99.05793450061353,90.17566034532392 L99.71863535006973,89.79186509248402 " />
			<path d="M37.9015761582338,8.711546017418561 L25.376575769256746,7.820277491511111 " />
			<path d="M37.901576158233794,8.711546017418561 L37.901576158233794,21.958958785286676 " />
			<path d="M56.02365660046134,10.001098066960616 L43.49865621148428,9.109829541053164 " />
			<path d="M56.02365660046134,10.001098066960616 L56.02365660046134,23.248510834828732 " />
			<path d="M37.9015761582338,27.510535311067336 L25.376575769256746,26.619266785159883 " />
			<path d="M37.901576158233794,27.510535311067336 L37.901576158233794,40.75794807893545 " />
			<path d="M56.02365660046134,28.80008736060939 L43.49865621148428,27.908818834701936 " />
			<path d="M56.02365660046134,28.80008736060939 L56.02365660046134,42.04750012847751 " />
			<path d="M74.14573704268886,11.290650116502668 L61.62073665371182,10.399381590595217 " />
			<path d="M74.14573704268886,11.290650116502668 L74.14573704268886,24.538062884370785 " />
			<path d="M92.2678174849164,12.580202166044723 L79.74281709593936,11.688933640137273 " />
			<path d="M92.2678174849164,12.580202166044723 L92.2678174849164,25.82761493391284 " />
			<path d="M74.14573704268886,30.08963941015144 L61.62073665371182,29.198370884243992 " />
			<path d="M74.14573704268886,30.08963941015144 L74.14573704268886,43.33705217801956 " />
			<path d="M92.2678174849164,31.379191459693494 L79.74281709593936,30.487922933786045 " />
			<path d="M92.2678174849164,31.379191459693498 L92.2678174849164,44.626604227561614 " />
			<path d="M37.9015761582338,46.309524604716096 L25.376575769256746,45.418256078808646 " />
			<path d="M37.901576158233794,46.3095246047161 L37.901576158233794,59.556937372584215 " />
			<path d="M56.02365660046134,47.599076654258155 L43.49865621148428,46.707808128350706 " />
			<path d="M56.02365660046134,47.599076654258155 L56.02365660046134,60.846489422126275 " />
			<path d="M37.9015761582338,65.10851389836486 L25.376575769256746,64.21724537245741 " />
			<path d="M37.901576158233794,65.10851389836486 L37.901576158233794,78.35592666623299 " />
			<path d="M56.02365660046134,66.39806594790693 L43.49865621148428,65.50679742199948 " />
			<path d="M56.02365660046134,66.39806594790691 L56.02365660046134,79.64547871577503 " />
			<path d="M74.14573704268886,48.88862870380021 L61.62073665371182,47.99736017789276 " />
			<path d="M74.14573704268886,48.88862870380021 L74.14573704268886,62.13604147166833 " />
			<path d="M92.2678174849164,50.17818075334227 L79.74281709593936,49.28691222743481 " />
			<path d="M92.2678174849164,50.17818075334226 L92.2678174849164,63.42559352121039 " />
			<path d="M74.14573704268886,67.68761799744897 L61.62073665371182,66.79634947154152 " />
			<path d="M74.14573704268886,67.68761799744898 L74.14573704268886,80.9350307653171 " />
			<path d="M92.2678174849164,68.97717004699103 L79.74281709593936,68.08590152108358 " />
			<path d="M92.2678174849164,68.97717004699103 L92.2678174849164,82.22458281485913 " />
			<path d="M37.901576158233794,8.711546017418561 L38.56227700769001,8.327750764578663 " />
			<path d="M56.02365660046134,10.001098066960616 L56.68435744991755,9.617302814120718 " />
			<path d="M37.901576158233794,27.510535311067336 L38.56227700769001,27.12674005822744 " />
			<path d="M56.02365660046134,28.80008736060939 L56.68435744991755,28.416292107769493 " />
			<path d="M74.14573704268886,11.290650116502668 L74.80643789214508,10.90685486366277 " />
			<path d="M92.2678174849164,12.580202166044723 L92.92851833437263,12.196406913204825 " />
			<path d="M74.14573704268886,30.08963941015144 L74.80643789214508,29.705844157311546 " />
			<path d="M92.2678174849164,31.379191459693498 L92.92851833437263,30.995396206853602 " />
			<path d="M37.901576158233794,46.3095246047161 L38.56227700769001,45.92572935187621 " />
			<path d="M56.02365660046134,47.599076654258155 L56.68435744991755,47.21528140141826 " />
			<path d="M37.901576158233794,65.10851389836486 L38.56227700769001,64.72471864552496 " />
			<path d="M56.02365660046134,66.39806594790691 L56.68435744991755,66.01427069506701 " />
			<path d="M74.14573704268886,48.88862870380021 L74.80643789214508,48.50483345096031 " />
			<path d="M92.2678174849164,50.17818075334226 L92.92851833437263,49.794385500502365 " />
			<path d="M74.14573704268886,67.68761799744898 L74.80643789214508,67.30382274460908 " />
			<path d="M92.2678174849164,68.97717004699103 L92.92851833437263,68.59337479415113 " />

       </g>
    </g>
    <g transform="translate(20,210.0)" stroke="rgb(0,0,255)">
        <line x1="30" y1="-30" x2="75" y2="-33" stroke-width="3" stroke="#000000" />
         <text x="80" y="-30" style="stroke:#000000">X </text>

        <line x1="30" y1="-30" x2="30" y2="-75" stroke-width="3" stroke="#000000" />
         <text x="25" y="-85" style="stroke:#000000">Y </text>

        <line x1="30" y1="-30" x2="58" y2="-15" stroke-width="3" stroke="#000000" />
         <text x="65" y="-5" style="stroke:#000000">Z </text>
        <!--
            <line x1="0" y1="0" x2="1.9876444575672745" y2="0" stroke-width="3" />
            <text x="0" y="20" style="stroke:#000000">1  mm </text>
        -->
    </g>
</svg>
